<?xml version="1.0" standalone="no"?>
<!DOCTYPE svg PUBLIC "-//W3C//DTD SVG 1.1//EN" "http://www.w3.org/Graphics/SVG/1.1/DTD/svg11.dtd" >
<svg xmlns="http://www.w3.org/2000/svg">
<metadata></metadata>
<defs>
<font id="circularstd-bookbook" horiz-adv-x="1071" >
<font-face units-per-em="2048" ascent="1657" descent="-391" />
<missing-glyph horiz-adv-x="512" />
<glyph horiz-adv-x="0" />
<glyph horiz-adv-x="0" />
<glyph unicode="&#xd;" horiz-adv-x="512" />
<glyph unicode=" "  horiz-adv-x="512" />
<glyph unicode="&#x09;" horiz-adv-x="512" />
<glyph unicode="&#xa0;" horiz-adv-x="512" />
<glyph unicode="!" horiz-adv-x="636" d="M184 124q0 56 39 95t94 39t95 -40t41 -93q0 -53 -39 -96q-40 -39 -96 -39t-95 39t-39 95zM197 1452h241l-51 -1036h-137z" />
<glyph unicode="&#x22;" horiz-adv-x="765" d="M82 1227q0 55 35 90t89 35t89 -35t35 -90q0 -8 -4 -37l-86 -385h-70l-84 383q-4 29 -4 39zM436 1227q0 55 35 90t89 35t89 -35t35 -90q0 -8 -4 -37l-86 -385h-70l-84 383q-4 29 -4 39z" />
<glyph unicode="#" horiz-adv-x="1511" d="M102 346v156h293l70 327h-262v156h295l73 342h172l-73 -342h291l73 342h172l-73 -342h276v-156h-309l-70 -327h279v-156h-314l-73 -346h-172l73 346h-291l-73 -346h-172l73 346h-258zM567 502h291l70 327h-291z" />
<glyph unicode="$" horiz-adv-x="1218" d="M102 379l195 61q9 -106 73 -185t179 -101v428l-51 10q-162 35 -251 130q-89 96 -89 242t108 259q109 109 283 131v215h160v-217q172 -23 262 -117t121 -217l-185 -68q-8 66 -60 130t-138 89v-419l30 -7q169 -33 267 -137t98 -246t-106 -255q-106 -112 -289 -132v-213 h-160v213q-201 23 -315 141t-132 265zM360 973q0 -150 189 -187v390q-85 -14 -137 -70t-52 -133zM709 154q96 18 145 70t49 125t-50 126t-144 74v-395z" />
<glyph unicode="%" horiz-adv-x="1673" d="M113 1019q0 132 96 227t231 95q134 0 232 -95t98 -228t-97 -227q-97 -95 -233 -95t-231 96q-96 96 -96 227zM276 0l955 1327h184l-950 -1327h-189zM283 1019q0 -71 45 -116q44 -45 112 -45t113 45t45 116t-45 116t-113 45t-112 -45t-45 -116zM924 306q0 132 96 228 t231 95q135 0 233 -95q98 -94 97 -228q0 -134 -97 -228q-96 -94 -232 -94t-232 95t-96 227zM1094 306q0 -71 45 -113q45 -47 113 -47t112 47q45 43 45 113t-45 116q-45 45 -113 45q-69 0 -113 -45t-44 -116z" />
<glyph unicode="&#x26;" horiz-adv-x="1427" d="M143 337q0 140 64 229t192 186l21 16l-27 29q-57 57 -78 88q-31 31 -61 102q-35 63 -35 133q0 164 113 264q118 98 274 98t264 -96q108 -98 109 -264q0 -166 -205 -315l-74 -55l271 -281l323 360v-264l-196 -227l329 -340h-272l-184 193q-193 -217 -398 -217t-317 110 q-112 111 -113 251zM350 362q0 -76 60 -141q61 -61 145 -61q83 0 143 38t138 121l6 9l-295 309l-74 -55q-123 -94 -123 -220zM418 1130q0 -85 110 -200l45 -49l99 73q109 80 108 181q0 70 -51 125q-53 51 -128 51t-129 -48t-54 -133z" />
<glyph unicode="'" horiz-adv-x="411" d="M82 1227q0 55 35 90t89 35t89 -35t35 -90q0 -8 -4 -37l-86 -385h-70l-84 383q-4 29 -4 39z" />
<glyph unicode="(" horiz-adv-x="618" d="M113 649q0 582 389 977l116 -102q-340 -379 -340 -875t340 -874l-116 -103q-389 395 -389 977z" />
<glyph unicode=")" horiz-adv-x="618" d="M0 -225q340 379 340 875t-340 874l117 102q389 -395 389 -977t-389 -977z" />
<glyph unicode="*" horiz-adv-x="901" d="M72 1116l47 148l250 -88v276h161v-274l252 86l47 -148l-254 -84l168 -215l-125 -94l-169 223l-160 -221l-125 94l162 213z" />
<glyph unicode="+" horiz-adv-x="1161" d="M113 508v162h383v399h168v-399h385v-162h-385v-404h-168v404h-383z" />
<glyph unicode="," horiz-adv-x="602" d="M143 128q0 60 44 100t111 40t114 -52t47 -142q0 -184 -93 -284t-210 -116v107q72 14 120 80q47 68 50 141q-16 -10 -60 -10t-84 37q-39 39 -39 99z" />
<glyph unicode="-" horiz-adv-x="739" d="M92 504v168h555v-168h-555z" />
<glyph unicode="." horiz-adv-x="571" d="M143 130q0 58 41 101q40 43 100 43t102 -42t42 -102t-42 -100t-101 -40t-101 41q-41 41 -41 99z" />
<glyph unicode="/" horiz-adv-x="888" d="M0 0l702 1452h187l-703 -1452h-186z" />
<glyph unicode="0" horiz-adv-x="1257" d="M102 664q0 307 119 481q141 213 407 213t408 -213q119 -174 119 -481t-119 -482q-141 -213 -407 -213t-408 213q-119 175 -119 482zM301 664q0 -307 117 -431q82 -86 211 -86t211 86q116 123 116 431t-116 430q-82 86 -211 86t-211 -86q-117 -123 -117 -430z" />
<glyph unicode="1" horiz-adv-x="722" d="M51 936v141q137 4 229 73t113 177h176v-1327h-196v936h-322z" />
<glyph unicode="2" horiz-adv-x="1083" d="M72 0q2 166 75 295q74 127 240 233l221 144q182 117 183 276q0 96 -66 165q-67 69 -189 69t-187 -77t-64 -196q0 -6 4 -59l-201 24q-2 12 -2 54q0 178 125 305q129 125 336 125t327 -119t119 -289q0 -252 -250 -409l-262 -168q-139 -88 -162 -187h682v-186h-929z" />
<glyph unicode="3" horiz-adv-x="1132" d="M76 385l196 45q6 -127 88 -209q88 -78 211 -78t203 70q74 75 74 185t-79 174t-191 65q-62 -1 -117 -21l-99 166l392 361h-635v184h901v-180l-379 -350q164 0 285 -107q125 -106 125 -290t-128 -308q-127 -125 -349 -125t-357 123q-133 123 -141 295z" />
<glyph unicode="4" horiz-adv-x="1175" d="M72 299v231l569 797h277v-842h227v-186h-227v-299h-195v299h-651zM256 485h467v650z" />
<glyph unicode="5" horiz-adv-x="1122" d="M72 360l192 58q10 -125 92 -199q78 -76 203 -76t207 74t82 201q0 128 -83 198t-219 70t-227 -96q-37 12 -78 30t-75 30q-34 13 -43 18l172 659h700v-184h-567l-98 -381q88 98 278 98t318 -119q125 -121 125 -317t-136 -326q-133 -131 -344 -131q-211 -1 -347 113 t-152 280z" />
<glyph unicode="6" horiz-adv-x="1187" d="M104 584q0 362 194 568t490 206q183 0 287 -74l-61 -164q-96 57 -238 58q-201 0 -330 -134q-125 -135 -137 -342q47 74 137 123t213 49q203 0 329 -120t126 -329q0 -210 -143 -333t-352 -123t-362 155t-153 460zM338 423q0 -128 86 -202q84 -78 205 -78t198 76 q84 76 84 204t-84 204q-79 75 -203 75t-202 -75q-84 -76 -84 -204z" />
<glyph unicode="7" horiz-adv-x="989" d="M10 1143v184h969v-192q-115 -89 -229 -240q-168 -209 -258 -518q-55 -178 -74 -377h-207q24 314 135 565q96 218 215 373q140 166 170 182l27 23h-748z" />
<glyph unicode="8" horiz-adv-x="1146" d="M92 350q0 119 72 203q66 86 180 125q-92 33 -154 118t-63 193q0 162 127 265q128 104 320 104t319 -104t127 -265q0 -104 -62 -191t-155 -120q113 -35 180 -123q72 -86 72 -205q0 -168 -129 -272q-128 -109 -353 -109t-352 109q-129 104 -129 272zM295 369q1 -98 75 -162 t203 -64q129 -1 204 63t75 162t-74 160q-74 66 -205 66t-204 -66q-74 -61 -74 -159zM328 975q0 -95 70 -153t175 -58q103 0 175 58t72 152t-68 156t-179 62t-179 -62t-66 -155z" />
<glyph unicode="9" horiz-adv-x="1189" d="M82 895q0 203 143 334q147 129 354 129t358 -157t150 -453q-1 -373 -167 -576t-496 -203q-74 1 -166 23t-141 55l65 166q102 -63 242 -63q225 0 342 129q113 135 119 342q-41 -72 -130 -121t-214 -49q-180 0 -322 118q-137 123 -137 326zM285 901q0 -125 83 -202 q82 -77 202 -77t204 76t84 203t-87 204t-201 77t-201 -76q-84 -80 -84 -205z" />
<glyph unicode=":" horiz-adv-x="593" d="M154 851q0 58 41 101t99 43t103 -41q41 -45 41 -103t-43 -99t-101 -41t-99 41t-41 99zM156 130q0 58 41 101t100 43t101 -42t42 -102t-42 -100t-101 -40t-100 41t-41 99z" />
<glyph unicode=";" horiz-adv-x="608" d="M154 123q0 57 40 95t104 38t111 -47q46 -47 46 -137q0 -178 -90 -269q-82 -94 -199 -110v100q66 15 112 75t50 136q-16 -10 -56 -10t-79 36t-39 93zM156 851q0 58 41 101t100 43t101 -42t42 -102t-42 -100t-101 -40t-100 41t-41 99z" />
<glyph unicode="&#x3c;" horiz-adv-x="987" d="M72 500v174l843 422v-195l-634 -313l634 -314v-194z" />
<glyph unicode="=" horiz-adv-x="1214" d="M133 309v162h948v-162h-948zM133 709v157h948v-157h-948z" />
<glyph unicode="&#x3e;" horiz-adv-x="987" d="M72 80v194l639 314l-639 313v195l843 -422v-174z" />
<glyph unicode="?" horiz-adv-x="1044" d="M72 1086q0 78 46 171q46 92 152 159t254 67q205 0 328 -123q121 -125 121 -289q0 -215 -209 -356l-94 -64q-90 -61 -90 -196q0 -25 2 -39h-181q-2 16 -2 71q0 205 170 320l90 61q109 74 109 201q0 100 -64 167t-185 67q-119 0 -185 -78t-66 -185q0 -63 15 -100l-199 25 q-12 43 -12 121zM356 124q0 56 39 95t94 39t95 -40t41 -93q0 -53 -39 -96q-40 -39 -96 -39t-95 39t-39 95z" />
<glyph unicode="@" horiz-adv-x="1691" d="M92 684q0 348 232 573t554 225q324 0 531 -192q211 -190 211 -477q0 -225 -113 -379q-116 -153 -276 -153q-78 -1 -133 33t-70 98q-96 -136 -238 -136t-231 96q-88 96 -88 255q0 201 120 339t290 138q70 0 133 -35t86 -100l18 108h162l-111 -514q-6 -31 -6 -57 q0 -84 78 -84q86 0 154 118t67 271q0 227 -158 375t-424 147q-265 0 -442 -182q-178 -179 -178 -461t174 -461q180 -176 477 -176q240 0 420 144l84 -111q-88 -82 -227 -132t-277 -50q-358 0 -589 215q-230 217 -230 565zM639 649q0 -223 174 -223q106 0 170 94 q70 95 72 238q0 192 -185 192q-93 0 -162 -90t-69 -211z" />
<glyph unicode="A" horiz-adv-x="1427" d="M20 0l578 1452h231l578 -1452h-217l-158 406h-643l-153 -406h-216zM461 592h500l-252 651z" />
<glyph unicode="B" horiz-adv-x="1232" d="M184 0v1452h473q201 0 320 -109t119 -284q0 -111 -58 -194t-159 -120q123 -31 190 -127q72 -96 72 -223q0 -172 -125 -284q-127 -111 -324 -111h-508zM385 176h279q125 0 196 64q76 62 76 168t-68 174q-70 63 -196 63h-287v-469zM385 817h250q115 0 188 64q70 68 70 170 t-72 163t-194 62h-242v-459z" />
<glyph unicode="C" horiz-adv-x="1536" d="M92 727q0 236 109 413t269 260t343 83q244 0 416 -123q168 -127 223 -338l-186 -66q-41 166 -158 252q-115 90 -295 90q-215 0 -364 -151q-152 -147 -152 -419t152 -423q151 -151 361 -151h3q180 0 297 96q119 92 166 252l178 -66q-59 -213 -229 -338 q-166 -129 -412 -129q-297 0 -510 205q-211 207 -211 553z" />
<glyph unicode="D" horiz-adv-x="1474" d="M184 0v1452h508q295 0 492 -195q198 -190 198 -532q0 -341 -200 -533t-494 -192h-504zM385 178h297q213 0 354 141q140 143 140 407t-140 404q-135 143 -350 144h-301v-1096z" />
<glyph unicode="E" horiz-adv-x="1189" d="M184 0v1452h883v-186h-682v-447h619v-188h-619v-445h682v-186h-883z" />
<glyph unicode="F" horiz-adv-x="1128" d="M184 0v1452h883v-186h-682v-467h619v-189h-619v-610h-201z" />
<glyph unicode="G" horiz-adv-x="1566" d="M92 729q0 236 109 413t269 259t341 82q231 0 406 -119q174 -123 237 -320l-182 -77q-49 156 -170 245q-123 86 -291 86q-213 0 -363 -150t-151 -424q0 -273 149 -421q144 -151 354 -151h3q113 0 203 36q154 62 215 220q29 61 30 122h-503v181h694v-711h-162l-18 205 q-50 -94 -172 -165t-300 -71t-337 84q-154 84 -260 262q-101 178 -101 414z" />
<glyph unicode="H" horiz-adv-x="1511" d="M184 0v1452h201v-621h741v621h201v-1452h-201v645h-741v-645h-201z" />
<glyph unicode="I" horiz-adv-x="573" d="M184 0v1452h205v-1452h-205z" />
<glyph unicode="J" horiz-adv-x="1093" d="M41 432v94l201 45v-137q0 -139 68 -209q68 -69 180 -69q113 0 176 70t63 194v1032h201v-1018q0 -195 -119 -332q-123 -133 -325 -133t-324 125q-121 131 -121 338z" />
<glyph unicode="K" horiz-adv-x="1368" d="M184 0v1452h201v-747l680 747h264l-604 -647l612 -805h-254l-491 659l-207 -221v-438h-201z" />
<glyph unicode="L" horiz-adv-x="1122" d="M184 0v1452h201v-1264h686v-188h-887z" />
<glyph unicode="M" horiz-adv-x="1937" d="M184 0v1452h273l512 -1182l516 1182h268v-1452h-199v1130l-495 -1130h-185l-491 1130v-1130h-199z" />
<glyph unicode="N" horiz-adv-x="1562" d="M184 0v1452h269l725 -1114v1114h200v-1452h-209l-784 1184v-1184h-201z" />
<glyph unicode="O" horiz-adv-x="1642" d="M92 727q0 180 64 322q113 269 397 383q127 51 268 51t271 -52q279 -111 395 -382q63 -141 63 -322q0 -238 -108 -410q-104 -174 -270 -261t-351 -87q-186 0 -351 87t-269 261q-109 172 -109 410zM297 727q0 -272 155 -423q156 -150 370 -150t369 150t155 423 q0 272 -154 420q-152 151 -371 151t-370 -151q-154 -148 -154 -420z" />
<glyph unicode="P" horiz-adv-x="1222" d="M184 0v1452h529q197 0 323 -123t125 -309q1 -186 -125 -306t-323 -120h-328v-594h-201zM385 774h291q127 0 205 66q75 68 75 182t-75 182q-78 68 -205 68h-291v-498z" />
<glyph unicode="Q" horiz-adv-x="1642" d="M92 727q0 180 64 322q113 269 397 383q127 51 268 51t271 -52q279 -111 395 -382q63 -141 63 -322q0 -326 -204 -537l170 -190l-138 -121l-176 195q-172 -104 -370 -104t-362 86q-165 87 -269 261q-109 172 -109 410zM297 727q0 -272 155 -423q154 -150 366 -150h3 q141 0 254 63l-252 283l140 121l254 -287q129 158 129 412t-154 401q-152 151 -371 151t-370 -151q-154 -148 -154 -420z" />
<glyph unicode="R" horiz-adv-x="1267" d="M184 0v1452h547q203 0 322 -125q123 -123 123 -294t-94 -283t-259 -142l346 -608h-233l-332 594h-217v-594h-203zM387 774h307q121 0 199 66q76 68 76 182t-76 182t-199 68h-307v-498z" />
<glyph unicode="S" horiz-adv-x="1214" d="M78 401l192 62q12 -131 102 -221t240 -90q149 0 228 65q78 66 78 158t-56 149q-57 63 -162 84l-206 45q-160 33 -257 137t-97 268q0 165 138 295q140 130 350 130t331 -108q120 -108 151 -253l-180 -63q-16 96 -92 172t-207 76t-210 -70t-79 -160q0 -176 186 -223 l217 -47q184 -41 279 -148q98 -104 98 -270t-139 -293t-371 -127t-374 129q-139 129 -160 303z" />
<glyph unicode="T" horiz-adv-x="1212" d="M20 1266v186h1172v-186h-485v-1266h-201v1266h-486z" />
<glyph unicode="U" horiz-adv-x="1372" d="M164 496v956h198v-950q0 -166 85 -256t239 -90t238 90t84 256v950h200v-956q0 -250 -146 -388t-376 -139q-230 1 -376 139t-146 388z" />
<glyph unicode="V" horiz-adv-x="1345" d="M20 1452h213l439 -1194l442 1194h211l-559 -1452h-199z" />
<glyph unicode="W" horiz-adv-x="2056" d="M31 1452h207l319 -1137l365 1137h211l372 -1149l314 1149h206l-413 -1452h-207l-379 1178l-375 -1178h-200z" />
<glyph unicode="X" horiz-adv-x="1263" d="M20 0l496 727l-491 725h241l367 -569l373 569h237l-493 -725l487 -727h-240l-366 567l-375 -567h-236z" />
<glyph unicode="Y" horiz-adv-x="1265" d="M20 1452h242l377 -647l377 647h229l-512 -831v-621h-201v621z" />
<glyph unicode="Z" horiz-adv-x="1294" d="M92 0v201l866 1065h-845v186h1089v-195l-870 -1069h880v-188h-1120z" />
<glyph unicode="[" horiz-adv-x="589" d="M184 -303v1911h396v-156h-228v-1602h228v-153h-396z" />
<glyph unicode="\" horiz-adv-x="888" d="M0 1452h190l699 -1452h-191z" />
<glyph unicode="]" horiz-adv-x="589" d="M10 -150h228v1602h-228v156h396v-1911h-396v153z" />
<glyph unicode="^" horiz-adv-x="1067" d="M51 725l398 729h169l398 -729h-203l-278 528l-281 -528h-203z" />
<glyph unicode="_" horiz-adv-x="1110" d="M31 0h1048v-162h-1048v162z" />
<glyph unicode="`" horiz-adv-x="557" d="M70 1411h241l176 -299h-159z" />
<glyph unicode="a" d="M102 268q0 125 82 199q80 78 217 96l267 39q76 8 76 80t-53 121t-155 49t-161 -53q-57 -55 -68 -146l-184 43q16 143 129 230q111 90 274 90q210 0 310 -100t100 -261v-493q0 -88 12 -162h-188q-10 68 -10 133q-39 -63 -119 -113t-213 -51q-133 0 -223 88q-93 86 -93 211 zM299 278q0 -60 44 -104q44 -43 116 -43q131 0 208 71t76 220v45l-301 -45q-63 -8 -103 -46t-40 -98z" />
<glyph unicode="b" horiz-adv-x="1214" d="M164 0v1483h190v-637q41 74 125 121t201 47q213 0 333 -144t120 -372q0 -227 -123 -376t-340 -149t-316 170v-143h-190zM352 497q0 -159 83 -255t212 -96t209 96t80 256t-80 252q-76 94 -208 94t-214 -94t-82 -253z" />
<glyph unicode="c" horiz-adv-x="1085" d="M82 498q0 227 141 372q141 146 338 146t309 -92t146 -222l-174 -73q-23 85 -86 147t-182 62t-207 -89t-88 -253t88 -256t213 -92t186 61q66 59 88 141l170 -74q-41 -125 -156 -215q-111 -92 -288 -92q-215 0 -357 150q-141 152 -141 379z" />
<glyph unicode="d" horiz-adv-x="1204" d="M82 494q0 221 131 366q131 152 336 152q119 0 196 -49q78 -45 105 -117v637h190v-1301q0 -90 11 -182h-187q-10 65 -10 133v17q-39 -76 -117 -126t-188 -51q-211 0 -340 150q-127 150 -127 371zM356 242q74 -98 208 -98t211 100q77 102 77 256t-76 248t-207 94t-211 -95 q-79 -94 -79 -248q0 -161 77 -257z" />
<glyph unicode="e" horiz-adv-x="1110" d="M84 486q0 232 138 381t346 149t334 -139t126 -377q0 -29 -4 -62h-741q4 -131 86 -215q88 -84 211 -84q213 0 276 199l166 -57q-43 -137 -159 -225q-115 -87 -279 -87h-4q-208 1 -352 143t-144 374zM289 594h538q-3 112 -73 182t-191 70t-195 -75t-79 -177z" />
<glyph unicode="f" horiz-adv-x="702" d="M41 811v174h182v166q0 160 93 249t231 89q88 0 115 -21v-172q-31 12 -89 12q-59 0 -105 -38q-46 -39 -46 -129v-156h237v-174h-237v-811h-199v811h-182z" />
<glyph unicode="g" horiz-adv-x="1183" d="M92 -53l187 43q9 -102 83 -172t185 -70q301 0 301 320v141q-37 -70 -115 -116t-186 -46q-197 0 -326 133q-127 137 -127 342t126 343q126 139 340 139t290 -156v137h190v-911q0 -98 -24 -185q-29 -89 -84 -159q-54 -70 -154 -110t-231 -40q-181 0 -309 104t-146 263z M291 520q0 -146 78 -225q73 -86 202 -86t207 88t78 227t-78 230q-78 86 -204 86t-205 -86q-78 -88 -78 -234z" />
<glyph unicode="h" horiz-adv-x="1150" d="M164 0v1483h192v-613q98 144 284 144t276 -109q92 -109 92 -280v-625h-193v592q0 248 -229 248q-106 0 -167 -74t-63 -186v-580h-192z" />
<glyph unicode="i" horiz-adv-x="518" d="M121 1357q0 56 39 99q45 41 99 41t97 -39q41 -45 41 -102t-41 -94q-39 -41 -97 -41t-98 40t-40 96zM164 0v985h190v-985h-190z" />
<glyph unicode="j" horiz-adv-x="520" d="M-31 -244q31 -6 62 -6q133 1 133 144v1091h192v-1100q0 -135 -73 -221q-74 -84 -199 -84q-74 0 -115 14v162zM121 1361q0 56 39 99q45 41 99 41t97 -39q41 -45 41 -102t-41 -94q-39 -41 -97 -41t-98 40t-40 96z" />
<glyph unicode="k" horiz-adv-x="1075" d="M164 0v1483h190v-934l426 436h267l-420 -416l428 -569h-242l-321 434l-138 -137v-297h-190z" />
<glyph unicode="l" horiz-adv-x="520" d="M164 0v1483h192v-1483h-192z" />
<glyph unicode="m" horiz-adv-x="1755" d="M164 0v985h184v-131q49 82 131 121t172 39t170 -46t121 -141q100 186 330 187q139 0 239 -95t101 -280v-639h-191v618q0 104 -53 164q-50 62 -152 62t-167 -70q-63 -72 -64 -178v-596h-192v618q0 100 -52 164q-55 62 -157 62t-166 -70t-64 -180v-594h-190z" />
<glyph unicode="n" horiz-adv-x="1150" d="M164 0v985h188v-141q98 170 303 170q169 0 261 -109t92 -280v-625h-193v592q0 248 -229 248q-111 0 -168 -78q-62 -74 -62 -193v-569h-192z" />
<glyph unicode="o" horiz-adv-x="1171" d="M82 492q0 226 142 376q142 148 362 148q219 0 361 -149q143 -149 143 -375t-142 -374q-142 -149 -362 -149q-220 1 -362 149t-142 374zM279 493q0 -167 88 -259t219 -93q131 0 217 92q90 91 90 259t-90 258q-86 94 -217 94t-217 -94q-90 -90 -90 -257z" />
<glyph unicode="p" horiz-adv-x="1214" d="M164 -389v1374h186v-154q43 78 129 127t201 50q215 0 332 -146q121 -141 121 -368q0 -228 -124 -374t-335 -147q-111 0 -195 46t-125 114v-522h-190zM352 492q0 -154 81 -250t212 -96t211 96q80 98 80 250t-79 248t-211 98q-132 0 -213 -96t-81 -250z" />
<glyph unicode="q" horiz-adv-x="1189" d="M82 495q0 220 127 365q123 150 336 150q119 0 201 -52t114 -124v151h187v-1374h-191v528q-39 -74 -119 -121q-82 -45 -188 -45q-205 0 -336 151t-131 371zM279 495q0 -151 77 -253q80 -98 210 -98t212 98q80 102 80 254t-80 249q-82 95 -213 95t-209 -95 q-77 -99 -77 -250z" />
<glyph unicode="r" horiz-adv-x="751" d="M164 0v985h188v-172q90 188 295 188q33 0 64 -6v-204q-43 6 -84 6q-270 0 -271 -303v-494h-192z" />
<glyph unicode="s" horiz-adv-x="925" d="M72 256l174 61q8 -76 69 -133q61 -51 149 -51t134 38q45 38 45 93q0 98 -127 127l-168 37q-118 26 -182 100t-64 189t103 207q104 92 248 92q98 0 168 -29q112 -38 176 -156q23 -41 30 -79l-170 -64q-7 58 -47 100q-18 27 -61 48q-43 16 -107 16t-106 -39 q-47 -39 -47 -92q0 -94 112 -119l160 -35q129 -27 201 -105t72 -191q0 -114 -97 -208q-92 -94 -269 -94q-176 1 -278 91t-118 196z" />
<glyph unicode="t" horiz-adv-x="727" d="M41 811v174h53q74 0 113 42t39 110v159h176v-311h213v-174h-213v-512q0 -135 123 -135q59 0 90 8v-164q-49 -18 -131 -18q-127 0 -201 74t-74 206v541h-188z" />
<glyph unicode="u" horiz-adv-x="1159" d="M154 365v620h192v-592q0 -111 54 -183q53 -71 167 -71h3q116 0 174 70t59 182v594h192v-803q0 -86 11 -182h-185q-8 41 -8 119q-41 -74 -119 -112t-172 -38q-168 0 -268 111t-100 285z" />
<glyph unicode="v" horiz-adv-x="1028" d="M20 985h218l280 -760l283 760h207l-394 -985h-194z" />
<glyph unicode="w" horiz-adv-x="1624" d="M31 985h211l221 -741l256 741h199l256 -741l217 741h202l-319 -985h-199l-262 750l-256 -750h-203z" />
<glyph unicode="x" horiz-adv-x="1005" d="M20 0l367 502l-354 483h233l242 -346l237 346h228l-350 -483q140 -183 247 -337q107 -155 115 -165h-231l-254 362l-250 -362h-230z" />
<glyph unicode="y" d="M20 985h222l307 -680l295 680h207l-641 -1397h-211l245 521z" />
<glyph unicode="z" horiz-adv-x="954" d="M82 0v168l541 643h-533v174h772v-168l-540 -643h550v-174h-790z" />
<glyph unicode="{" horiz-adv-x="722" d="M92 563v176q98 1 162 51t63 156v281q0 381 369 381h27v-154h-27q-109 0 -156 -49q-45 -51 -45 -166v-336q0 -102 -57 -168t-156 -84q98 -19 156 -83t57 -169v-333q0 -117 45 -166t156 -50h27v-153h-27q-369 0 -369 381v278q1 106 -63 156t-162 51z" />
<glyph unicode="|" horiz-adv-x="536" d="M184 -303v1911h168v-1911h-168z" />
<glyph unicode="}" horiz-adv-x="722" d="M10 -150h27q111 0 156 52q45 47 45 164v333q0 104 57 169t156 83q-97 19 -155 83t-58 169v336q0 115 -45 166q-47 49 -156 49h-27v154h27q369 0 369 -381v-281q0 -106 64 -156t161 -51v-176q-97 0 -161 -50t-64 -157v-278q0 -381 -369 -381h-27v153z" />
<glyph unicode="~" horiz-adv-x="1167" d="M72 549q121 195 311 194q98 0 195 -53l94 -51q57 -33 116 -33q121 0 191 113l117 -94q-113 -190 -308 -191q-96 0 -198 55l-94 52q-57 31 -111 30q-111 0 -197 -116z" />
<glyph unicode="&#xa1;" horiz-adv-x="567" d="M150 882q0 56 38 95t96 39t93 -41q41 -35 41 -92t-39 -97t-95 -38q-56 0 -96 38q-38 40 -38 96zM162 -444l53 1034h137l51 -1034h-241z" />
<glyph unicode="&#xa2;" horiz-adv-x="1110" d="M102 674q0 182 107 313q111 131 280 162v180h156v-176q141 -14 236 -96q88 -86 118 -191l-165 -67q-16 59 -64 119q-53 53 -125 67v-629q152 31 199 183l164 -68q-33 -102 -128 -185t-235 -98v-188h-156v193q-168 31 -280 163q-107 136 -107 318zM293 672q0 -119 54 -200 t142 -107v612q-88 -27 -141 -109q-55 -77 -55 -196z" />
<glyph unicode="&#xa3;" horiz-adv-x="1214" d="M133 0v195q102 43 164 120q61 80 61 166q0 47 -8 78h-205v176h144q-61 137 -62 242q0 165 118 273t288 108q215 0 313 -109q98 -104 109 -256l-201 -35q-2 109 -59 168q-61 56 -153 56t-152 -54q-62 -54 -62 -145q0 -90 68 -248h397v-176h-344q4 -49 4 -55 q0 -109 -52 -195t-143 -131h416q98 0 148 62t49 155l192 -28q0 -162 -90 -265q-92 -102 -250 -102h-690z" />
<glyph unicode="&#xa4;" horiz-adv-x="1191" d="M90 92l150 156q-72 112 -72 244t76 245l-154 158l123 121l154 -160q113 72 237 72t227 -64l148 152l123 -121l-144 -150q84 -119 84 -260t-81 -247l141 -146l-121 -121l-143 148q-109 -68 -237 -68t-241 76l-149 -156zM338 488q0 -114 76 -193q78 -76 190 -76t188 76 q74 75 74 193t-74 194t-188 76q-113 0 -190 -76q-76 -80 -76 -194z" />
<glyph unicode="&#xa5;" horiz-adv-x="1191" d="M51 1327h234l321 -534l305 534h230l-334 -553h244v-145h-344v-164h344v-148h-344v-317h-199v317h-346v148h346v164h-346v145h239z" />
<glyph unicode="&#xa6;" horiz-adv-x="536" d="M184 -303v817h168v-817h-168zM184 791v817h168v-817h-168z" />
<glyph unicode="&#xa7;" horiz-adv-x="1173" d="M174 1108q0 166 123 270t303 104t291 -106q106 -109 106 -272l-184 -37q0 117 -57 186q-60 68 -160 68t-162 -52t-63 -153q0 -101 123 -166l211 -110q143 -76 213 -152q73 -74 73 -199q0 -82 -53 -157q-55 -72 -119 -99q86 -53 133 -133t47 -163q0 -168 -122 -273 q-123 -104 -307 -104t-287 104q-104 104 -107 277l182 36q0 -117 58 -187t162 -69q106 1 164 53t58 154t-120 166l-213 111q-129 66 -211 147q-74 80 -74 186t56 175q49 70 118 96q-86 51 -135 133q-47 82 -47 166zM369 586q0 -113 131 -180l205 -111q33 14 67 61 q31 49 31 103q0 112 -131 180l-205 111q-37 -14 -68 -62t-30 -102z" />
<glyph unicode="&#xa8;" horiz-adv-x="776" d="M78 1270q0 49 33 86q39 35 87 35t83 -35t35 -86t-35 -82q-33 -35 -84 -35t-85 34t-34 83zM461 1270q0 53 35 86q31 35 82 35t86 -35q34 -35 34 -86t-34 -82q-33 -35 -86 -35t-82 35q-35 29 -35 82z" />
<glyph unicode="&#xa9;" horiz-adv-x="1681" d="M92 727q0 315 219 535q215 221 527 221t532 -223q219 -222 219 -534t-221 -533q-217 -223 -529 -223t-528 223q-219 219 -219 534zM252 726q0 -257 169 -432t417 -175t415 176q170 174 170 431t-169 432q-168 175 -416 175t-417 -175t-169 -432zM438 734q0 183 114 303 t277 120t253 -78t118 -178l-143 -59q-14 70 -70 121q-49 49 -147 49t-172 -74q-70 -76 -70 -207t72 -207t174 -75q174 0 223 165l139 -61q-33 -98 -126 -174q-94 -76 -252 -76t-275 123q-115 125 -115 308z" />
<glyph unicode="&#xaa;" horiz-adv-x="876" d="M135 821q1 87 59 143t152 68l180 25q54 10 54 54t-34 78t-102 34t-107 -36q-40 -36 -46 -97l-141 32q10 96 88 162q82 66 216 66t206 -74t71 -184v-347q0 -82 8 -112h-145q-8 31 -8 90q-66 -111 -215 -111q-109 0 -170 62q-66 59 -66 147zM289 829q0 -35 28 -67 q31 -27 78 -27q184 0 185 191v30l-195 -30q-96 -16 -96 -97z" />
<glyph unicode="&#xab;" horiz-adv-x="964" d="M61 594l273 391h190l-268 -391l268 -391h-190zM461 594l272 391h191l-269 -391l269 -391h-191z" />
<glyph unicode="&#xac;" horiz-adv-x="1173" d="M92 705v167h948v-567h-172v400h-776z" />
<glyph unicode="&#xad;" horiz-adv-x="739" d="M92 504v168h555v-168h-555z" />
<glyph unicode="&#xae;" horiz-adv-x="1681" d="M92 727q0 315 219 535q215 221 527 221t532 -223q219 -222 219 -534t-221 -533q-217 -223 -529 -223t-528 223q-219 219 -219 534zM252 726q0 -257 169 -432t417 -175t415 176q170 174 170 431t-169 432q-168 175 -416 175t-417 -175t-169 -432zM588 322v823h284 q121 0 200 -75t79 -173t-51 -163t-129 -91l184 -321h-178l-172 307h-62v-307h-155zM743 764h107q70 0 106 32t37 89q0 125 -143 125h-107v-246z" />
<glyph unicode="&#xaf;" horiz-adv-x="702" d="M72 1182v166h559v-166h-559z" />
<glyph unicode="&#xb0;" horiz-adv-x="759" d="M51 1027q0 132 96 227q95 96 231 96t233 -96t97 -228q0 -133 -96 -227q-98 -94 -233 -94t-232 94q-96 96 -96 228zM221 1027q0 -71 45 -116t113 -45t113 45t45 116t-45 116t-113 45t-113 -45t-45 -116z" />
<glyph unicode="&#xb1;" horiz-adv-x="1161" d="M133 104v162h895v-162h-895zM133 633v158h363v278h168v-278h364v-158h-364v-275h-168v275h-363z" />
<glyph unicode="&#xb2;" horiz-adv-x="796" d="M125 705v26q0 190 174 297l123 76q88 51 88 129q0 43 -30 73t-82 30t-84 -34q-32 -32 -32 -71t7 -68h-152q-6 31 -6 64q0 100 73 170q72 69 196 69t197 -68t73 -167q0 -137 -144 -225l-147 -93q-55 -37 -64 -75h359v-133h-549z" />
<glyph unicode="&#xb3;" horiz-adv-x="843" d="M123 899l137 55q10 -61 55 -94q43 -37 105 -37t102 32q39 32 39 85t-41 84q-71 45 -155 18l-60 115l195 162h-350v133h555v-129l-205 -164q92 -8 157 -65q63 -62 63 -162t-81 -172q-88 -72 -214 -72t-204 62t-98 149z" />
<glyph unicode="&#xb4;" horiz-adv-x="561" d="M72 1112l178 299h242l-259 -299h-161z" />
<glyph unicode="&#xb5;" horiz-adv-x="1169" d="M164 -389v1374h192v-592q0 -111 54 -183t171 -71q116 0 174 70t58 182v594h193v-803q0 -111 10 -182h-185q-8 41 -8 119q-41 -74 -119 -112t-170 -38t-178 41v-399h-192z" />
<glyph unicode="&#xb6;" horiz-adv-x="1282" d="M72 1047q0 195 133 296q127 109 330 109h696v-166h-199v-1698h-170v1698h-190v-1698h-170v1069h-33q-162 0 -281 113q-117 115 -116 277z" />
<glyph unicode="&#xb7;" horiz-adv-x="571" d="M143 581q0 58 41 101q40 43 100 43t102 -42t42 -101q0 -58 -42 -100t-101 -42t-101 41q-41 42 -41 100z" />
<glyph unicode="&#xb8;" horiz-adv-x="602" d="M66 -352l75 92q63 -70 148 -70q43 0 67 19q29 14 29 46t-25 50t-59 18t-65 -10l-68 80l98 156h146l-80 -123q86 0 143 -45q55 -49 55 -125t-62 -129t-177 -53q-150 0 -225 94z" />
<glyph unicode="&#xb9;" horiz-adv-x="600" d="M102 1206v107q76 4 128 43t61 96h145v-747h-157v501h-177z" />
<glyph unicode="&#xba;" horiz-adv-x="991" d="M137 981q0 158 101 264q104 105 258 105t258 -105q100 -106 100 -264t-100 -264q-104 -105 -258 -105t-258 105q-100 106 -101 264zM291 982q0 -106 59 -171q60 -61 146 -61t144 62t58 171t-57 168t-144 59t-147 -59q-59 -63 -59 -169z" />
<glyph unicode="&#xbb;" horiz-adv-x="964" d="M41 203l268 391l-268 391h190l273 -391l-273 -391h-190zM440 203l269 391l-269 391h191l272 -391l-272 -391h-191z" />
<glyph unicode="&#xbc;" horiz-adv-x="1597" d="M113 1081v107q74 4 127 44t61 95h145v-747h-157v501h-176zM166 0l954 1327h185l-951 -1327h-188zM827 147v150l363 451h174v-467h131v-134h-131v-147h-158v147h-379zM979 281h227v284z" />
<glyph unicode="&#xbd;" horiz-adv-x="1595" d="M113 1081v107q74 4 127 44t61 95h145v-747h-157v501h-176zM164 0l954 1327h185l-951 -1327h-188zM948 0v27q0 190 174 297l123 75q88 51 88 129q1 43 -29 73t-82 30t-84 -33q-32 -32 -32 -72t6 -67h-151q-6 31 -7 63q0 100 73 170t197 70t195 -70q74 -68 74 -166 q0 -137 -143 -225l-148 -92q-55 -37 -63 -76h358v-133h-549z" />
<glyph unicode="&#xbe;" horiz-adv-x="1740" d="M113 774l137 55q10 -59 53 -96q47 -35 107 -35t102 31q39 33 39 88t-41 80q-37 29 -84 29t-72 -8l-59 114l194 162h-350v133h555v-129l-205 -164q97 -10 159 -66t62 -160t-82 -174q-83 -71 -212 -71q-129 -1 -206 61t-97 150zM346 0l954 1327h185l-950 -1327h-189z M971 147v150l362 451h174v-467h131v-134h-131v-147h-157v147h-379zM1122 281h228v284z" />
<glyph unicode="&#xbf;" horiz-adv-x="1044" d="M41 -63q0 215 209 356l94 63q90 61 90 197q0 29 -2 39h180q2 -16 2 -72q0 -205 -170 -319l-90 -62q-109 -74 -108 -200q0 -100 63 -167t184 -67t187 78t65 184q0 63 -14 101l199 -25q12 -43 12 -121t-46 -172q-46 -92 -153 -159t-254 -66q-207 0 -325 123 q-123 123 -123 289zM387 882q0 52 39 95q41 39 96 39t94 -39t39 -94t-39 -97q-43 -38 -94 -38t-96 38q-39 44 -39 96z" />
<glyph unicode="&#xc0;" horiz-adv-x="1427" d="M20 0l578 1452h231l578 -1452h-217l-158 406h-643l-153 -406h-216zM334 1798h264l209 -244h-191zM461 592h500l-252 651z" />
<glyph unicode="&#xc1;" horiz-adv-x="1427" d="M20 0l578 1452h231l578 -1452h-217l-158 406h-643l-153 -406h-216zM461 592h500l-252 651zM614 1554l207 244h266l-280 -244h-193z" />
<glyph unicode="&#xc2;" horiz-adv-x="1427" d="M20 0l578 1452h231l578 -1452h-217l-158 406h-643l-153 -406h-216zM352 1554l230 244h245l240 -244h-188l-174 132l-166 -132h-187zM461 592h500l-252 651z" />
<glyph unicode="&#xc3;" horiz-adv-x="1427" d="M20 0l578 1452h231l578 -1452h-217l-158 406h-643l-153 -406h-216zM377 1550v33q0 109 55 170q57 57 136 57t157 -47l31 -18q53 -29 78 -29q66 0 65 72v16h137v-32q0 -106 -53 -170q-57 -58 -138 -58t-151 47l-30 21q-47 29 -76 28q-72 0 -72 -90h-139zM461 592h500 l-252 651z" />
<glyph unicode="&#xc4;" horiz-adv-x="1427" d="M20 0l578 1452h231l578 -1452h-217l-158 406h-643l-153 -406h-216zM291 1677q0 51 35 86t86 35t86 -35q34 -35 34 -86t-34 -86t-86 -35q-51 0 -86 35t-35 86zM461 592h500l-252 651zM887 1677q0 51 35 86t86 35t86 -35q34 -35 34 -86t-34 -86t-86 -35q-51 0 -86 35 t-35 86z" />
<glyph unicode="&#xc5;" horiz-adv-x="1427" d="M20 0l541 1360q-102 78 -102 188t73 185q78 71 178 71t177 -71q74 -73 74 -183t-97 -186l543 -1364h-217l-158 406h-643l-153 -406h-216zM461 592h500l-252 651zM602 1554q0 -42 30 -72t75 -30t75 30t31 73q0 44 -32 76q-31 32 -75 32t-74 -33t-30 -76z" />
<glyph unicode="&#xc6;" horiz-adv-x="2101" d="M10 0l967 1452h1001v-186h-682v-447h619v-188h-619v-445h682v-186h-882v401h-570l-258 -401h-258zM641 582h455v704z" />
<glyph unicode="&#xc7;" horiz-adv-x="1536" d="M92 727q0 236 109 413t269 260t343 83q244 0 416 -123q168 -127 223 -338l-186 -66q-41 166 -158 252q-115 90 -295 90q-215 0 -364 -151q-152 -147 -152 -419t152 -423q152 -152 364 -151q174 0 296 97t167 251l178 -66q-55 -188 -201 -315q-147 -125 -354 -148l-43 -67 q86 0 143 -45q55 -49 55 -125t-62 -129t-177 -53q-150 0 -225 94l76 92q63 -70 147 -70q43 0 68 19q29 14 29 46t-25 50t-59 18t-66 -10l-68 80l62 98q-279 19 -470 223t-192 533z" />
<glyph unicode="&#xc8;" horiz-adv-x="1189" d="M184 0v1452h883v-186h-682v-447h619v-188h-619v-445h682v-186h-883zM305 1798h264l209 -244h-190z" />
<glyph unicode="&#xc9;" horiz-adv-x="1189" d="M184 0v1452h883v-186h-682v-447h619v-188h-619v-445h682v-186h-883zM479 1554l207 244h266l-280 -244h-193z" />
<glyph unicode="&#xca;" horiz-adv-x="1189" d="M184 0v1452h883v-186h-682v-447h619v-188h-619v-445h682v-186h-883zM268 1554l230 244h245l240 -244h-188l-174 132l-166 -132h-187z" />
<glyph unicode="&#xcb;" horiz-adv-x="1189" d="M184 0v1452h883v-186h-682v-447h619v-188h-619v-445h682v-186h-883zM272 1677q0 51 35 86t86 35t86 -35t35 -86t-35 -86t-86 -35t-86 35t-35 86zM745 1677q0 51 35 86t86 35t86 -35t35 -86t-35 -86t-86 -35t-86 35t-35 86z" />
<glyph unicode="&#xcc;" horiz-adv-x="573" d="M-92 1798h264l209 -244h-191zM184 0v1452h205v-1452h-205z" />
<glyph unicode="&#xcd;" horiz-adv-x="573" d="M184 0v1452h205v-1452h-205zM193 1554l206 244h267l-281 -244h-192z" />
<glyph unicode="&#xce;" horiz-adv-x="573" d="M-57 1554l229 244h246l239 -244h-188l-174 132l-166 -132h-186zM184 0v1452h205v-1452h-205z" />
<glyph unicode="&#xcf;" horiz-adv-x="573" d="M23 1677q0 47 30 78q33 31 79 31t78 -32t32 -78t-33 -78t-77 -32t-79 31q-30 33 -30 80zM184 0v1452h205v-1452h-205zM336 1676q0 46 32 78t78 32t77 -31q32 -31 32 -78t-31 -80q-33 -31 -78 -31q-46 0 -78 32t-32 78z" />
<glyph unicode="&#xd0;" horiz-adv-x="1482" d="M37 666v168h156v618h507q295 0 492 -195q199 -190 199 -532t-201 -532q-199 -193 -494 -193h-503v666h-156zM393 178h297q213 0 354 141q140 143 140 407t-140 404q-135 143 -350 144h-301v-440h250v-168h-250v-488z" />
<glyph unicode="&#xd1;" horiz-adv-x="1562" d="M184 0v1452h269l725 -1114v1114h200v-1452h-209l-784 1184v-1184h-201zM453 1550v33q0 109 55 170q57 57 136 57t157 -47l30 -18q51 -29 78 -29q66 0 66 72v16h137v-32q0 -109 -54 -168q-54 -60 -136 -60t-152 47l-31 21q-47 29 -75 28q-72 0 -72 -90h-139z" />
<glyph unicode="&#xd2;" horiz-adv-x="1642" d="M92 727q0 180 64 322q113 269 397 383q127 51 268 51t271 -52q279 -111 395 -382q63 -141 63 -322q0 -238 -108 -410q-104 -174 -270 -261t-351 -87q-186 0 -351 87t-269 261q-109 172 -109 410zM297 727q0 -272 155 -423q156 -150 370 -150t369 150t155 423 q0 272 -154 420q-152 151 -371 151t-370 -151q-154 -148 -154 -420zM457 1798h264l209 -244h-191z" />
<glyph unicode="&#xd3;" horiz-adv-x="1642" d="M92 727q0 180 64 322q113 269 397 383q127 51 268 51t271 -52q279 -111 395 -382q63 -141 63 -322q0 -238 -108 -410q-104 -174 -270 -261t-351 -87q-186 0 -351 87t-269 261q-109 172 -109 410zM297 727q0 -272 155 -423q156 -150 370 -150t369 150t155 423 q0 272 -154 420q-152 151 -371 151t-370 -151q-154 -148 -154 -420zM709 1554l206 244h267l-281 -244h-192z" />
<glyph unicode="&#xd4;" horiz-adv-x="1642" d="M92 727q0 180 64 322q113 269 397 383q127 51 268 51t271 -52q279 -111 395 -382q63 -141 63 -322q0 -238 -108 -410q-104 -174 -270 -261t-351 -87q-186 0 -351 87t-269 261q-109 172 -109 410zM297 727q0 -272 155 -423q156 -150 370 -150t369 150t155 423 q0 272 -154 420q-152 151 -371 151t-370 -151q-154 -148 -154 -420zM465 1554l229 244h246l240 -244h-189l-174 132l-166 -132h-186z" />
<glyph unicode="&#xd5;" horiz-adv-x="1642" d="M92 727q0 180 64 322q113 269 397 383q127 51 268 51t271 -52q279 -111 395 -382q63 -141 63 -322q0 -238 -108 -410q-104 -174 -270 -261t-351 -87q-186 0 -351 87t-269 261q-109 172 -109 410zM297 727q0 -272 155 -423q156 -150 370 -150t369 150t155 423 q0 272 -154 420q-152 151 -371 151t-370 -151q-154 -148 -154 -420zM500 1552v33q0 113 55 168q53 59 134 59t159 -47l31 -18q51 -29 77 -29q66 0 66 72v16h137v-32q0 -111 -53 -169q-53 -59 -136 -59t-153 47l-31 21q-47 29 -75 28q-72 0 -72 -90h-139z" />
<glyph unicode="&#xd6;" horiz-adv-x="1642" d="M92 727q0 180 64 322q113 269 397 383q127 51 268 51t271 -52q279 -111 395 -382q63 -141 63 -322q0 -238 -108 -410q-104 -174 -270 -261t-351 -87q-186 0 -351 87t-269 261q-109 172 -109 410zM297 727q0 -272 155 -423q156 -150 370 -150t369 150t155 423 q0 272 -154 420q-152 151 -371 151t-370 -151q-154 -148 -154 -420zM383 1677q0 51 35 86t86 35t86 -35t35 -86t-35 -86t-86 -35t-86 35t-35 86zM1020 1677q0 51 35 86t86 35t86 -35t35 -86t-35 -86t-86 -35t-86 35t-35 86z" />
<glyph unicode="&#xd7;" horiz-adv-x="1085" d="M82 229l346 361l-344 356l117 117l342 -356l342 356l116 -115l-346 -358l349 -361l-115 -116l-348 358l-344 -356z" />
<glyph unicode="&#xd8;" horiz-adv-x="1642" d="M92 727q0 180 64 322q113 269 397 383q127 51 268 51q215 0 391 -113l148 189l139 -107l-149 -192q201 -213 200 -533q0 -238 -108 -410q-104 -174 -270 -261t-364 -87t-374 109l-139 -182l-143 104l145 188q-205 211 -205 539zM297 746q0 -252 121 -404l680 879 q-127 78 -277 77q-219 0 -370 -151q-154 -149 -154 -401zM549 225q121 -72 272 -71q215 0 370 150t155 423q0 223 -117 377z" />
<glyph unicode="&#xd9;" horiz-adv-x="1372" d="M164 496v956h198v-950q0 -166 85 -256t239 -90t238 90t84 256v950h200v-956q0 -250 -146 -388t-376 -139q-230 1 -376 139t-146 388zM354 1798h264l209 -244h-190z" />
<glyph unicode="&#xda;" horiz-adv-x="1372" d="M164 496v956h198v-950q0 -166 85 -256t239 -90t238 90t84 256v950h200v-956q0 -250 -146 -388t-376 -139q-230 1 -376 139t-146 388zM539 1554l206 244h267l-281 -244h-192z" />
<glyph unicode="&#xdb;" horiz-adv-x="1372" d="M164 496v956h198v-950q0 -166 85 -256t239 -90t238 90t84 256v950h200v-956q0 -250 -146 -388t-376 -139q-230 1 -376 139t-146 388zM330 1554l229 244h246l239 -244h-188l-174 132l-166 -132h-186z" />
<glyph unicode="&#xdc;" horiz-adv-x="1372" d="M164 496v956h198v-950q0 -166 85 -256t239 -90t238 90t84 256v950h200v-956q0 -250 -146 -388t-376 -139q-230 1 -376 139t-146 388zM340 1677q0 51 35 86t86 35t86 -35t35 -86t-35 -86t-86 -35t-86 35t-35 86zM793 1677q0 51 34 86q35 35 86 35t86 -35t35 -86t-35 -86 t-86 -35t-86 35q-34 35 -34 86z" />
<glyph unicode="&#xdd;" horiz-adv-x="1265" d="M20 1452h242l377 -647l377 647h229l-512 -831v-621h-201v621zM483 1554l207 244h266l-280 -244h-193z" />
<glyph unicode="&#xde;" horiz-adv-x="1212" d="M184 0v1452h201v-281h317q199 1 329 -119t130 -306t-129 -304q-122 -120 -327 -120h-320v-322h-201zM385 500h295q127 0 203 65q73 67 73 181t-74 181t-202 66h-295v-493z" />
<glyph unicode="&#xdf;" horiz-adv-x="1161" d="M164 0v1010q0 219 127 346q131 127 319 127t308 -99q117 -102 116 -247q0 -190 -180 -303l-59 -37q-64 -40 -64 -87t23 -63q18 -18 71 -43l72 -35q93 -45 153 -123t60 -186t-88 -200q-88 -91 -252 -91t-247 91t-83 198l170 45q0 -66 41 -119q37 -55 115 -55t116 38t38 83 q0 98 -107 149l-70 33q-73 34 -143 91t-71 183q-1 125 128 207l66 43q117 74 117 174q0 76 -62 132q-61 51 -168 51q-106 0 -180 -83t-74 -231v-999h-192z" />
<glyph unicode="&#xe0;" d="M102 268q0 125 82 199q80 78 217 96l267 39q76 8 76 80t-53 121t-155 49t-161 -53q-57 -55 -68 -146l-184 43q16 143 129 230q111 90 274 90q210 0 310 -100t100 -261v-493q0 -88 12 -162h-188q-10 68 -10 133q-39 -63 -119 -113t-213 -51q-133 0 -223 88q-93 86 -93 211 zM223 1411h242l176 -299h-160zM299 278q0 -60 44 -104q44 -43 116 -43q131 0 208 71t76 220v45l-301 -45q-63 -8 -103 -46t-40 -98z" />
<glyph unicode="&#xe1;" d="M102 268q0 125 82 199q80 78 217 96l267 39q76 8 76 80t-53 121t-155 49t-161 -53q-57 -55 -68 -146l-184 43q16 143 129 230q111 90 274 90q210 0 310 -100t100 -261v-493q0 -88 12 -162h-188q-10 68 -10 133q-39 -63 -119 -113t-213 -51q-133 0 -223 88q-93 86 -93 211 zM299 278q0 -60 44 -104q44 -43 116 -43q131 0 208 71t76 220v45l-301 -45q-63 -8 -103 -46t-40 -98zM451 1112l178 299h241l-258 -299h-161z" />
<glyph unicode="&#xe2;" d="M102 268q0 125 82 199q80 78 217 96l267 39q76 8 76 80t-53 121t-155 49t-161 -53q-57 -55 -68 -146l-184 43q16 143 129 230q111 90 274 90q210 0 310 -100t100 -261v-493q0 -88 12 -162h-188q-10 68 -10 133q-39 -63 -119 -113t-213 -51q-133 0 -223 88q-93 86 -93 211 zM221 1116l213 285h219l213 -285h-180l-143 166l-144 -166h-178zM299 278q0 -60 44 -104q44 -43 116 -43q131 0 208 71t76 220v45l-301 -45q-63 -8 -103 -46t-40 -98z" />
<glyph unicode="&#xe3;" d="M102 268q0 125 82 199q80 78 217 96l267 39q76 8 76 80t-53 121t-155 49t-161 -53q-57 -55 -68 -146l-184 43q16 143 129 230q111 90 274 90q210 0 310 -100t100 -261v-493q0 -88 12 -162h-188q-10 68 -10 133q-39 -63 -119 -113t-213 -51q-133 0 -223 88q-93 86 -93 211 zM219 1137v30q0 106 55 166q58 57 136 57t147 -44l29 -19q47 -29 73 -29q59 0 60 88h145v-30q0 -106 -55 -164t-132 -59q-77 0 -147 45l-28 18q-47 29 -76 29q-59 0 -59 -88h-148zM299 278q0 -60 44 -104q44 -43 116 -43q131 0 208 71t76 220v45l-301 -45q-63 -8 -103 -46 t-40 -98z" />
<glyph unicode="&#xe4;" d="M102 268q0 125 82 199q80 78 217 96l267 39q76 8 76 80t-53 121t-155 49t-161 -53q-57 -55 -68 -146l-184 43q16 143 129 230q111 90 274 90q210 0 310 -100t100 -261v-493q0 -88 12 -162h-188q-10 68 -10 133q-39 -63 -119 -113t-213 -51q-133 0 -223 88q-93 86 -93 211 zM225 1270q0 49 33 86q39 35 87 35t83 -35t35 -86t-35 -82q-33 -35 -84 -35t-85 34t-34 83zM299 278q0 -60 44 -104q44 -43 116 -43q131 0 208 71t76 220v45l-301 -45q-63 -8 -103 -46t-40 -98zM608 1270q0 53 35 86q31 35 82 35t86 -35t35 -86t-35 -82q-33 -35 -86 -35 t-82 35q-35 29 -35 82z" />
<glyph unicode="&#xe5;" d="M102 268q0 125 82 199q80 78 217 96l267 39q76 8 76 80t-53 121t-155 49t-161 -53q-57 -55 -68 -146l-184 43q16 143 129 230q111 90 274 90q210 0 310 -100t100 -261v-493q0 -88 12 -162h-188q-10 68 -10 133q-39 -63 -119 -113t-213 -51q-133 0 -223 88q-93 86 -93 211 zM299 278q0 -60 44 -104q44 -43 116 -43q131 0 208 71t76 220v45l-301 -45q-63 -8 -103 -46t-40 -98zM307 1315q0 94 69 159q69 64 160 64q92 0 160 -64t68 -159q0 -94 -69 -160q-69 -65 -159 -65t-161 65q-68 66 -68 160zM436 1312q0 -38 27 -69q33 -29 73 -29t68 29 q29 29 29 69t-29 70t-69 31q-40 0 -72 -29q-27 -34 -27 -72z" />
<glyph unicode="&#xe6;" horiz-adv-x="1789" d="M102 268q0 125 82 199q80 78 217 96l285 39q78 12 78 80t-58 120t-162 52t-169 -55q-64 -55 -72 -137l-180 34q12 145 139 230q121 90 277 90q242 0 350 -164q141 164 354 164t339 -139t126 -377q0 -33 -4 -62h-741q4 -131 89 -215t208 -84q211 0 274 199l168 -57 q-43 -133 -163 -223t-262 -89q-143 1 -251 57t-176 156q-117 -213 -395 -213q-160 0 -258 86q-95 88 -95 213zM299 270q0 -57 45 -98q51 -41 125 -41q115 0 207 70q88 74 88 219v47l-322 -45q-143 -20 -143 -152zM969 594h538q-1 108 -73 180t-192 72t-194 -75t-79 -177z " />
<glyph unicode="&#xe7;" horiz-adv-x="1085" d="M82 502q0 216 142 365t338 149t308 -92t146 -222l-174 -73q-23 86 -86 147q-63 62 -182 62t-207 -92t-88 -252t87 -253t210 -93t190 61q68 68 88 141l170 -74q-37 -110 -127 -194t-235 -107l-48 -71q90 0 144 -47q55 -43 55 -120t-59 -129q-60 -52 -194 -52t-212 90 l76 92q64 -70 154 -70t90 68q0 29 -25 47t-59 18t-66 -10l-67 80l65 102q-190 23 -311 170q-123 143 -123 359z" />
<glyph unicode="&#xe8;" horiz-adv-x="1110" d="M84 486q0 232 138 381t346 149t334 -139t126 -377q0 -29 -4 -62h-741q4 -131 86 -215q88 -84 211 -84q213 0 276 199l166 -57q-43 -137 -159 -225t-283 -87q-208 1 -352 143t-144 374zM254 1411h242l176 -299h-160zM289 594h538q-3 112 -73 182t-191 70t-195 -75 t-79 -177z" />
<glyph unicode="&#xe9;" horiz-adv-x="1110" d="M84 486q0 232 138 381t346 149t334 -139t126 -377q0 -29 -4 -62h-741q4 -131 86 -215q88 -84 211 -84q213 0 276 199l166 -57q-43 -137 -159 -225t-283 -87q-208 1 -352 143t-144 374zM289 594h538q-3 112 -73 182t-191 70t-195 -75t-79 -177zM471 1112l178 299h242 l-258 -299h-162z" />
<glyph unicode="&#xea;" horiz-adv-x="1110" d="M84 486q0 232 138 381t346 149t334 -139t126 -377q0 -29 -4 -62h-741q4 -131 86 -215q88 -84 211 -84q213 0 276 199l166 -57q-43 -137 -159 -225t-283 -87q-208 1 -352 143t-144 374zM250 1116l213 285h219l213 -285h-180l-144 166l-143 -166h-178zM289 594h538 q-3 112 -73 182t-191 70t-195 -75t-79 -177z" />
<glyph unicode="&#xeb;" horiz-adv-x="1110" d="M84 486q0 232 138 381t346 149t334 -139t126 -377q0 -29 -4 -62h-741q4 -131 86 -215q88 -84 211 -84q213 0 276 199l166 -57q-43 -137 -159 -225t-283 -87q-208 1 -352 143t-144 374zM258 1270q0 49 33 86q39 35 87 35t83 -35t35 -86t-35 -82q-33 -35 -84 -35t-85 34 t-34 83zM289 594h538q-3 112 -73 182t-191 70t-195 -75t-79 -177zM641 1270q0 53 35 86q31 35 82 35t86 -35t35 -86t-35 -82q-33 -35 -86 -35t-82 35q-35 29 -35 82z" />
<glyph unicode="&#xec;" horiz-adv-x="518" d="M-68 1411h242l176 -299h-160zM164 0v985h190v-985h-190z" />
<glyph unicode="&#xed;" horiz-adv-x="518" d="M164 0v985h190v-985h-190zM174 1112l178 299h242l-258 -299h-162z" />
<glyph unicode="&#xee;" horiz-adv-x="518" d="M-61 1116l213 285h219l213 -285h-181l-143 166l-143 -166h-178zM164 0v985h190v-985h-190z" />
<glyph unicode="&#xef;" horiz-adv-x="518" d="M6 1272q0 47 31 80q35 30 79 30t77 -32t33 -77q0 -46 -32 -78t-78 -32t-79 31q-31 31 -31 78zM164 0v985h190v-985h-190zM295 1272q0 47 32 79q31 31 77 31t79 -30q31 -33 31 -79t-32 -78t-79 -32t-77 31t-31 78z" />
<glyph unicode="&#xf0;" horiz-adv-x="1167" d="M82 468q0 216 143 347q141 135 334 135t283 -102q-66 174 -207 293l-268 -133l-60 129l193 96q-90 51 -230 94l60 156q184 -43 356 -158l223 113l64 -129l-166 -82q281 -262 280 -692q0 -248 -137 -404q-135 -160 -359 -160t-368 140q-141 141 -141 357zM276 465 q0 -147 89 -236q92 -86 220 -86t216 86t88 238t-88 233q-88 86 -216 86t-220 -86q-89 -88 -89 -235z" />
<glyph unicode="&#xf1;" horiz-adv-x="1150" d="M164 0v985h188v-141q98 170 303 170q169 0 261 -109t92 -280v-625h-193v592q0 248 -229 248q-111 0 -168 -78q-62 -74 -62 -193v-569h-192zM281 1137v30q0 106 55 166q57 57 135 57t147 -44l29 -19q47 -29 74 -29q59 0 59 88h146v-30q0 -106 -56 -164t-132 -59 q-77 0 -146 45l-29 18q-47 29 -76 29q-59 0 -59 -88h-147z" />
<glyph unicode="&#xf2;" horiz-adv-x="1171" d="M82 492q0 226 142 376q142 148 362 148q219 0 361 -149q143 -149 143 -375t-142 -374q-142 -149 -362 -149q-220 1 -362 149t-142 374zM256 1411h242l176 -299h-160zM279 493q0 -167 88 -259t219 -93q131 0 217 92q90 91 90 259t-90 258q-86 94 -217 94t-217 -94 q-90 -90 -90 -257z" />
<glyph unicode="&#xf3;" horiz-adv-x="1171" d="M82 492q0 226 142 376q142 148 362 148q219 0 361 -149q143 -149 143 -375t-142 -374q-142 -149 -362 -149q-220 1 -362 149t-142 374zM279 493q0 -167 88 -259t219 -93q131 0 217 92q90 91 90 259t-90 258q-86 94 -217 94t-217 -94q-90 -90 -90 -257zM471 1112l178 299 h242l-258 -299h-162z" />
<glyph unicode="&#xf4;" horiz-adv-x="1171" d="M82 492q0 226 142 376q142 148 362 148q219 0 361 -149q143 -149 143 -375t-142 -374q-142 -149 -362 -149q-220 1 -362 149t-142 374zM264 1116l213 285h219l213 -285h-180l-143 166l-144 -166h-178zM279 493q0 -167 88 -259t219 -93q131 0 217 92q90 91 90 259t-90 258 q-86 94 -217 94t-217 -94q-90 -90 -90 -257z" />
<glyph unicode="&#xf5;" horiz-adv-x="1171" d="M82 492q0 226 142 376q142 148 362 148q219 0 361 -149q143 -149 143 -375t-142 -374q-142 -149 -362 -149q-220 1 -362 149t-142 374zM266 1137v30q0 109 56 166t135 57q78 0 147 -44l29 -19q47 -29 74 -29q59 0 59 88h145v-30q0 -106 -55 -164t-132 -59q-77 0 -146 45 l-29 18q-47 29 -76 29q-59 0 -59 -88h-148zM279 493q0 -167 88 -259t219 -93q131 0 217 92q90 91 90 259t-90 258q-86 94 -217 94t-217 -94q-90 -90 -90 -257z" />
<glyph unicode="&#xf6;" horiz-adv-x="1171" d="M82 492q0 226 142 376q142 148 362 148q219 0 361 -149q143 -149 143 -375t-142 -374q-142 -149 -362 -149q-220 1 -362 149t-142 374zM274 1270q0 49 33 86q39 35 87 35t83 -35t35 -86t-35 -82q-33 -35 -84 -35t-85 34t-34 83zM279 493q0 -167 88 -259t219 -93 q131 0 217 92q90 91 90 259t-90 258q-86 94 -217 94t-217 -94q-90 -90 -90 -257zM657 1270q0 53 35 86q31 35 82 35t86 -35t35 -86t-35 -82q-33 -35 -86 -35t-82 35q-35 29 -35 82z" />
<glyph unicode="&#xf7;" horiz-adv-x="1161" d="M113 504v170h936v-170h-936zM446 225q0 53 39 92t93 39t94 -39q39 -39 39 -92t-39 -94q-43 -39 -94 -39q-52 0 -92 40t-40 93zM446 950q0 55 39 94t93 39t94 -39q39 -39 39 -93t-39 -93t-94 -39t-91 41q-41 35 -41 90z" />
<glyph unicode="&#xf8;" horiz-adv-x="1171" d="M82 501q0 219 142 367t362 148q135 0 256 -66l102 133l123 -98l-104 -135q127 -150 127 -366t-142 -366q-142 -149 -362 -149q-139 0 -254 64l-101 -129l-122 98l100 131q-127 150 -127 368zM279 494q0 -117 51 -207l401 520q-68 37 -145 37q-131 0 -217 -94 q-90 -90 -90 -256zM442 176q64 -35 144 -35q131 0 217 92q90 92 90 261q0 117 -49 202z" />
<glyph unicode="&#xf9;" horiz-adv-x="1159" d="M154 365v620h192v-592q0 -111 54 -183t170 -71q116 0 174 70t59 182v594h192v-803q0 -86 11 -182h-185q-8 41 -8 119q-41 -74 -119 -112t-172 -38q-168 0 -268 111t-100 285zM266 1411h242l176 -299h-160z" />
<glyph unicode="&#xfa;" horiz-adv-x="1159" d="M154 365v620h192v-592q0 -111 54 -183t170 -71q116 0 174 70t59 182v594h192v-803q0 -86 11 -182h-185q-8 41 -8 119q-41 -74 -119 -112t-172 -38q-168 0 -268 111t-100 285zM446 1112l179 299h241l-258 -299h-162z" />
<glyph unicode="&#xfb;" horiz-adv-x="1159" d="M154 365v620h192v-592q0 -111 54 -183t170 -71q116 0 174 70t59 182v594h192v-803q0 -86 11 -182h-185q-8 41 -8 119q-41 -74 -119 -112t-172 -38q-168 0 -268 111t-100 285zM252 1116l213 285h219l213 -285h-180l-144 166l-143 -166h-178z" />
<glyph unicode="&#xfc;" horiz-adv-x="1159" d="M154 365v620h192v-592q0 -111 54 -183t170 -71q116 0 174 70t59 182v594h192v-803q0 -86 11 -182h-185q-8 41 -8 119q-41 -74 -119 -112t-172 -38q-168 0 -268 111t-100 285zM262 1270q0 49 33 86q39 35 87 35t83 -35t35 -86t-35 -82q-33 -35 -84 -35t-85 34t-34 83z M645 1270q0 53 35 86q31 35 82 35t86 -35t35 -86t-35 -82q-33 -35 -86 -35t-82 35q-35 29 -35 82z" />
<glyph unicode="&#xfd;" d="M20 985h222l307 -680l295 680h207l-641 -1397h-211l245 521zM418 1112l178 299h242l-258 -299h-162z" />
<glyph unicode="&#xfe;" horiz-adv-x="1214" d="M164 -389v1872h192v-641q41 70 127 121q90 45 197 45q215 0 332 -146q121 -141 121 -368q0 -228 -124 -374t-335 -147q-111 0 -195 46t-125 114v-522h-190zM352 492q0 -154 81 -250t212 -96t211 96q80 98 80 250t-79 248t-211 98q-132 0 -213 -96t-81 -250z" />
<glyph unicode="&#xff;" d="M20 985h222l307 -680l295 680h207l-641 -1397h-211l245 521zM225 1270q0 49 33 86q39 35 87 35t83 -35t35 -86t-35 -82q-33 -35 -84 -35t-85 34t-34 83zM608 1270q0 53 35 86q31 35 82 35t86 -35t35 -86t-35 -82q-33 -35 -86 -35t-82 35q-35 29 -35 82z" />
<glyph unicode="&#x2000;" horiz-adv-x="906" />
<glyph unicode="&#x2001;" horiz-adv-x="1812" />
<glyph unicode="&#x2002;" horiz-adv-x="906" />
<glyph unicode="&#x2003;" horiz-adv-x="1812" />
<glyph unicode="&#x2004;" horiz-adv-x="604" />
<glyph unicode="&#x2005;" horiz-adv-x="453" />
<glyph unicode="&#x2006;" horiz-adv-x="302" />
<glyph unicode="&#x2007;" horiz-adv-x="302" />
<glyph unicode="&#x2008;" horiz-adv-x="226" />
<glyph unicode="&#x2009;" horiz-adv-x="362" />
<glyph unicode="&#x200a;" horiz-adv-x="100" />
<glyph unicode="&#x2010;" horiz-adv-x="739" d="M92 504v168h555v-168h-555z" />
<glyph unicode="&#x2011;" horiz-adv-x="739" d="M92 504v168h555v-168h-555z" />
<glyph unicode="&#x2012;" horiz-adv-x="739" d="M92 504v168h555v-168h-555z" />
<glyph unicode="&#x2013;" horiz-adv-x="1208" d="M92 504v168h1024v-168h-1024z" />
<glyph unicode="&#x2014;" horiz-adv-x="2232" d="M92 504v168h2048v-168h-2048z" />
<glyph unicode="&#x202f;" horiz-adv-x="362" />
<glyph unicode="&#x205f;" horiz-adv-x="453" />
<glyph unicode="&#x25fc;" horiz-adv-x="985" d="M0 0v985h985v-985h-985z" />
</font>
</defs>
</svg>
