<?xml version="1.0" standalone="no"?>
<!DOCTYPE svg PUBLIC "-//W3C//DTD SVG 1.1//EN" "http://www.w3.org/Graphics/SVG/1.1/DTD/svg11.dtd" >
<svg xmlns="http://www.w3.org/2000/svg">
<metadata></metadata>
<defs>
<font id="circularstd-boldbold" horiz-adv-x="1196" >
<font-face units-per-em="2048" ascent="1657" descent="-391" />
<missing-glyph horiz-adv-x="505" />
<glyph horiz-adv-x="0" />
<glyph horiz-adv-x="0" />
<glyph unicode="&#xd;" horiz-adv-x="505" />
<glyph unicode=" "  horiz-adv-x="505" />
<glyph unicode="&#x09;" horiz-adv-x="505" />
<glyph unicode="&#xa0;" horiz-adv-x="505" />
<glyph unicode="!" horiz-adv-x="684" d="M176 1452h330l-66 -1010h-198zM180 144q0 67 47 116t114 49t115 -48t48 -116q0 -69 -48 -115t-115 -46t-114 46t-47 114z" />
<glyph unicode="&#x22;" horiz-adv-x="823" d="M70 1196q0 68 44 112t110 44t108 -44q43 -44 43 -112q0 -31 -8 -53l-97 -375h-96l-96 375q-8 35 -8 53zM449 1196q0 68 44 112q43 44 109 44t109 -44t43 -112q0 -31 -9 -53l-96 -375h-96l-96 375q-8 35 -8 53z" />
<glyph unicode="#" horiz-adv-x="1519" d="M84 330v194h293l61 287h-252v197h293l70 319h215l-70 -319h269l69 319h213l-69 -319h260v-197h-301l-62 -287h260v-194h-303l-69 -330h-213l69 330h-268l-70 -330h-215l70 330h-250zM592 524h268l62 287h-269z" />
<glyph unicode="$" horiz-adv-x="1220" d="M90 399l254 62q8 -102 82 -178q74 -70 188 -70t172 41q55 43 56 113q0 113 -154 145l-188 41q-172 37 -262 139q-96 96 -96 250t108 266q109 112 278 142v219h209v-226q162 -27 252 -125t115 -219l-252 -71q-12 72 -66 131t-158 59t-158 -46t-54 -114q0 -106 141 -137 l186 -43q183 -39 279 -144t96 -253t-102 -258q-98 -113 -279 -141v-222h-209v220q-200 26 -312 150t-126 269z" />
<glyph unicode="%" horiz-adv-x="1748" d="M90 1016q0 139 100 237q100 99 238 99t244 -99q100 -100 100 -239t-100 -236q-106 -96 -244 -96t-240 96q-98 99 -98 238zM291 0l938 1329h237l-938 -1329h-237zM295 1014q0 -64 39 -103t97 -39t96 39t38 103t-37 104q-39 39 -95 39t-99 -39q-39 -40 -39 -104zM985 311 q0 139 100 238q101 98 241 98t239 -98q102 -97 102 -239t-101 -237q-100 -95 -240 -95t-241 96q-100 98 -100 237zM1190 308q0 -64 39 -99q39 -41 98 -41t94 41q39 37 39 101t-38 104t-94 39q-56 0 -99 -39q-39 -42 -39 -106z" />
<glyph unicode="&#x26;" horiz-adv-x="1468" d="M137 347q1 139 59 227t189 186l10 6l-22 25q-160 170 -160 315q0 174 121 276q122 102 288 102t281 -102t115 -272t-205 -324l-55 -41l219 -231l366 383v-340l-202 -213l327 -344h-352l-149 158q-180 -184 -385 -184t-326 116q-119 117 -119 257zM408 379q0 -63 49 -115 t125 -53q106 0 221 121l-248 262l-31 -23q-117 -86 -116 -192zM471 1113q0 -71 86 -157l39 -43l72 54q92 68 92 153q0 57 -43 101q-43 39 -103 39t-101 -38q-42 -38 -42 -109z" />
<glyph unicode="'" horiz-adv-x="444" d="M70 1196q0 68 44 112t110 44t108 -44q43 -44 43 -112q0 -31 -8 -53l-97 -375h-96l-96 375q-8 35 -8 53z" />
<glyph unicode="(" horiz-adv-x="675" d="M88 659q0 598 430 1018l158 -145q-358 -379 -358 -874t358 -873l-158 -143q-430 419 -430 1017z" />
<glyph unicode=")" horiz-adv-x="675" d="M0 -215q358 379 358 873t-358 874l158 145q430 -420 430 -1018t-430 -1017z" />
<glyph unicode="*" horiz-adv-x="931" d="M51 1071l66 201l239 -80v260h219v-260l238 80l68 -201l-242 -78l152 -205l-170 -124l-156 206l-152 -206l-170 127l150 202z" />
<glyph unicode="+" horiz-adv-x="1206" d="M100 492v223h387v399h230v-399h389v-223h-389v-402h-230v402h-387z" />
<glyph unicode="," horiz-adv-x="638" d="M125 165q0 73 52 122t139 49t143 -66q55 -68 55 -170q0 -205 -113 -317q-111 -115 -247 -129v131q76 17 133 79t61 142q-16 -12 -53 -12q-76 0 -123 49t-47 122z" />
<glyph unicode="-" horiz-adv-x="778" d="M92 487v242h594v-242h-594z" />
<glyph unicode="." horiz-adv-x="636" d="M131 172q0 80 55 133t132 53q76 0 132 -53t56 -133t-55 -133t-133 -53t-132 53q-55 53 -55 133z" />
<glyph unicode="/" horiz-adv-x="972" d="M0 -18l725 1488h248l-727 -1488h-246z" />
<glyph unicode="0" horiz-adv-x="1277" d="M84 664q0 295 117 473q151 223 439 223t435 -223q119 -180 119 -473t-119 -474q-147 -223 -436 -223t-438 223q-117 179 -117 474zM367 664q0 -446 272 -447q131 0 199 109q74 111 73 338q0 227 -73 337q-68 109 -199 109q-272 0 -272 -446z" />
<glyph unicode="1" horiz-adv-x="811" d="M63 889v190q143 2 240 72q96 74 117 178h244v-1329h-281v889h-320z" />
<glyph unicode="2" horiz-adv-x="1112" d="M66 0q4 193 73 326q68 139 240 241l219 131q158 96 158 230q0 74 -51 129q-57 53 -155 53t-153 -61q-53 -63 -53 -160q0 -33 10 -74l-268 8q-10 51 -10 92q0 185 131 315t351 130t351 -124t131 -304q0 -256 -258 -412l-256 -155q-92 -59 -114 -121h637v-244h-983z" />
<glyph unicode="3" horiz-adv-x="1124" d="M37 393l272 53q4 -102 71 -168t171 -65q105 0 165 57q60 58 60 148t-59 141t-141 51t-138 -20l-125 196l349 299h-582v244h940v-227l-344 -287q162 -6 270 -119q115 -108 115 -286t-139 -312q-140 -129 -368 -129t-366 124t-151 300z" />
<glyph unicode="4" horiz-adv-x="1222" d="M66 285v295l559 749h348v-803h219v-241h-219v-285h-279v285h-628zM315 526h379v508z" />
<glyph unicode="5" horiz-adv-x="1134" d="M59 373l265 59q2 -94 68 -159t169 -65q102 0 168 60q66 59 66 163t-68 161q-69 57 -181 57t-192 -90q-133 51 -258 88l158 682h750v-244h-558l-65 -292q88 82 240 81q203 0 329 -116q125 -119 125 -320t-138 -336q-139 -135 -359 -135t-364 120t-155 286z" />
<glyph unicode="6" horiz-adv-x="1191" d="M86 580q0 358 203 567q201 213 534 213q175 -1 279 -62l-78 -229q-113 47 -219 47q-176 0 -298 -100t-142 -281q39 59 122 105q86 43 193 43q207 0 333 -120t126 -326t-148 -335q-141 -133 -368 -133t-381 162q-156 158 -156 449zM389 432q0 -100 70 -162q66 -63 165 -63 t167 61q67 60 67 162t-68 162t-166 59q-99 1 -167 -59t-68 -160z" />
<glyph unicode="7" horiz-adv-x="1030" d="M10 1085v244h1010v-235q-61 -53 -97 -89t-118 -144q-165 -218 -248 -499q-55 -184 -70 -362h-292q14 197 71 383t127 309q82 135 139 217q76 98 115 135l47 41h-684z" />
<glyph unicode="8" horiz-adv-x="1163" d="M80 358q0 102 63 195q70 90 172 129q-96 35 -151 121q-57 82 -58 176q0 168 134 274q134 107 342 107q209 0 340 -107q135 -106 135 -274q0 -94 -56 -176q-55 -86 -151 -121q104 -41 168 -129t65 -195q0 -172 -137 -280q-143 -109 -364 -109t-365 109q-137 109 -137 280z M358 389q0 -78 59 -132t165 -54t163 55q61 53 61 130t-58 132q-59 55 -167 55t-163 -55q-60 -53 -60 -131zM387 957q0 -71 51 -121q54 -48 144 -52q92 4 144 52t52 120t-52 121t-143 49t-143 -49t-53 -120z" />
<glyph unicode="9" horiz-adv-x="1193" d="M70 894q0 202 143 335q145 131 373 131t372 -164q152 -158 152 -465q0 -360 -178 -563q-180 -199 -516 -199q-186 0 -307 74l69 227q100 -57 236 -57q184 0 295 97t127 280q-43 -66 -123 -105t-185 -39q-194 0 -326 123t-132 325zM342 900q0 -98 66 -158t162 -60t163 61 q66 62 66 158t-66 158q-68 61 -163 61q-96 0 -162 -61t-66 -159z" />
<glyph unicode=":" horiz-adv-x="638" d="M135 838q0 76 53 130t130 54q78 0 132 -54t54 -130t-55 -129t-131 -53t-130 52q-53 54 -53 130zM137 167q0 75 53 130t130 55q78 0 132 -54t54 -131t-54 -129t-132 -52t-130 53q-53 53 -53 128z" />
<glyph unicode=";" horiz-adv-x="643" d="M137 838q0 76 52 130t130 54q79 0 133 -54t54 -130t-54 -129t-132 -53t-130 52q-53 54 -53 130zM139 154q0 72 51 118t133 45q82 0 132 -63q53 -61 53 -160q0 -196 -108 -304t-234 -122v125q70 13 125 73t59 138q-12 -12 -49 -12q-72 0 -117 45t-45 117z" />
<glyph unicode="&#x3c;" horiz-adv-x="1017" d="M72 500v207l880 444v-252l-606 -293l606 -293v-256z" />
<glyph unicode="=" horiz-adv-x="1234" d="M121 291v221h993v-221h-993zM121 698v220h993v-220h-993z" />
<glyph unicode="&#x3e;" horiz-adv-x="1017" d="M66 57v252l606 293l-606 293v256l880 -444v-205z" />
<glyph unicode="?" horiz-adv-x="1083" d="M66 1049q0 178 127 305q123 129 344 129t351 -120t130 -288q0 -219 -203 -362l-84 -60q-111 -80 -110 -198v-13h-222q-8 47 -8 84q0 174 162 297l98 74q88 63 88 151t-52 141q-52 54 -154 54q-103 1 -155 -69t-52 -162q0 -43 8 -66l-258 10q-10 37 -10 93zM352 144 q0 67 47 116t114 49t118 -47q47 -51 47 -118q0 -68 -49 -114t-116 -46t-114 46t-47 114z" />
<glyph unicode="@" horiz-adv-x="1693" d="M80 680q0 350 234 577t560 227t537 -192q211 -193 211 -481q0 -227 -126 -375t-290 -151q-76 0 -133 34q-49 37 -65 91q-39 -66 -103 -95q-57 -35 -135 -34q-135 0 -223 98t-88 256q0 199 119 330t284 131q62 0 120 -30t79 -87l16 90h195l-107 -502q-4 -29 -4 -47t19 -37 q14 -20 47 -20q78 0 139 100t61 246q0 215 -149 354q-154 135 -402 135t-419 -171q-170 -171 -170 -438t166 -436t450 -169q213 0 377 121l98 -139q-82 -72 -215 -118t-260 -46q-365 0 -592 215q-231 213 -231 563zM670 653q0 -188 145 -188q83 0 141 82t60 203 q0 161 -150 161q-80 -1 -138 -75t-58 -183z" />
<glyph unicode="A" horiz-adv-x="1478" d="M20 0l558 1452h327l553 -1452h-307l-121 332h-590l-121 -332h-299zM535 590h401l-201 549z" />
<glyph unicode="B" horiz-adv-x="1249" d="M166 0v1452h522q205 0 324 -108q118 -107 118 -280q0 -112 -59 -198t-151 -116q112 -29 184 -121t72 -223q0 -180 -123 -291q-121 -115 -326 -115h-561zM444 236h230q102 0 162 51q57 51 57 139t-57 140t-158 52h-234v-382zM444 852h201q96 0 152 49q55 49 55 133 t-53 133q-57 47 -156 47h-199v-362z" />
<glyph unicode="C" horiz-adv-x="1564" d="M80 724q0 337 219 548q213 211 507 211t460 -142q170 -139 219 -340l-266 -83q-31 123 -129 208q-100 84 -274 84t-309 -126q-134 -126 -134 -352t131 -357q135 -129 314 -129t276 88q102 88 137 209l264 -80q-20 -90 -74 -172q-116 -195 -331 -277q-117 -45 -267 -45 q-313 0 -528 209t-215 546z" />
<glyph unicode="D" horiz-adv-x="1482" d="M166 0v1452h520q313 0 518 -195q199 -195 199 -531t-201 -532q-201 -194 -518 -194h-518zM449 262h225q192 0 314 119t122 345t-123 343q-121 121 -311 121h-227v-928z" />
<glyph unicode="E" horiz-adv-x="1191" d="M166 0v1452h909v-266h-626v-332h567v-252h-567v-336h626v-266h-909z" />
<glyph unicode="F" horiz-adv-x="1150" d="M166 0v1452h917v-268h-634v-359h565v-260h-563v-565h-285z" />
<glyph unicode="G" horiz-adv-x="1599" d="M80 724q0 343 219 550q215 209 524 209q268 0 434 -129q170 -127 230 -318l-270 -96q-35 117 -132 195q-98 84 -271 84t-310 -126t-137 -365t131 -370t320 -131q190 0 286 92t110 191h-458v246h725v-756h-230l-18 166q-55 -82 -164 -141q-111 -55 -264 -56 q-301 0 -513 206t-212 549z" />
<glyph unicode="H" horiz-adv-x="1531" d="M166 0v1452h283v-584h632v584h285v-1452h-285v602h-632v-602h-283z" />
<glyph unicode="I" horiz-adv-x="618" d="M166 0v1452h287v-1452h-287z" />
<glyph unicode="J" horiz-adv-x="1140" d="M41 442v97l272 49v-133q4 -109 56 -164q57 -53 144 -53t142 57q51 61 52 154v1003h282v-1003q0 -201 -133 -340t-344 -139t-341 129q-130 130 -130 343z" />
<glyph unicode="K" horiz-adv-x="1429" d="M166 0v1452h283v-657l581 657h371l-576 -633l580 -819h-354l-422 602l-180 -199v-403h-283z" />
<glyph unicode="L" horiz-adv-x="1146" d="M166 0v1452h283v-1182h647v-270h-930z" />
<glyph unicode="M" horiz-adv-x="1951" d="M166 0v1452h373l436 -1049l426 1049h385v-1452h-279v1018l-417 -1018h-236l-418 1010v-1010h-270z" />
<glyph unicode="N" horiz-adv-x="1570" d="M166 0v1452h352l604 -960v960h283v-1452h-297l-659 1030v-1030h-283z" />
<glyph unicode="O" horiz-adv-x="1652" d="M80 726q0 339 219 548t527 209t528 -209q219 -208 219 -545q0 -342 -219 -551q-220 -209 -528 -209t-527 209t-219 548zM373 727q0 -229 135 -358q137 -125 318 -125t319 125q135 129 135 358t-135 358q-137 125 -319 125t-318 -125q-135 -129 -135 -358z" />
<glyph unicode="P" horiz-adv-x="1241" d="M166 0v1452h543q213 0 345 -126t132 -327t-133 -325q-131 -127 -344 -127h-260v-547h-283zM451 791h223q106 0 166 56t61 151q0 96 -59 152t-168 56h-223v-415z" />
<glyph unicode="Q" horiz-adv-x="1652" d="M80 726q0 339 219 548t527 209t528 -209q219 -208 219 -546q0 -298 -178 -505l174 -192l-187 -160l-178 197q-174 -98 -379 -99q-307 0 -526 209t-219 548zM373 727q0 -229 135 -358q137 -125 317 -125q100 0 187 37l-228 249l189 162l227 -254q80 119 80 289 q0 229 -135 358q-137 125 -319 125t-318 -125q-135 -129 -135 -358z" />
<glyph unicode="R" horiz-adv-x="1280" d="M166 0v1452h567q209 0 336 -127t127 -319q0 -150 -82 -261q-88 -113 -227 -151l311 -594h-315l-285 559h-147v-559h-285zM451 803h229q106 0 168 55q59 54 59 146t-59 147q-61 55 -168 55h-229v-403z" />
<glyph unicode="S" horiz-adv-x="1236" d="M61 424l263 70q10 -117 92 -195t208 -78t191 49q61 48 61 120t-46 120q-48 48 -130 61l-202 41q-176 37 -279 146q-102 109 -102 270q0 193 147 324t375 131t365 -127q61 -64 92 -120t47 -130l-254 -78q-17 80 -79 142t-172 62t-177 -52q-63 -55 -64 -131 q0 -133 158 -164l203 -39q190 -37 298 -153q107 -114 107 -282q0 -173 -143 -307t-381 -135q-135 0 -246 40t-181 111q-132 135 -151 304z" />
<glyph unicode="T" horiz-adv-x="1267" d="M33 1184v268h1202v-268h-459v-1184h-284v1184h-459z" />
<glyph unicode="U" horiz-adv-x="1419" d="M152 514v938h282v-917q0 -141 74 -216q70 -75 201 -75t204 75q72 76 72 216v917h283v-938q0 -256 -158 -403q-159 -144 -400 -144t-401 144q-158 147 -157 403z" />
<glyph unicode="V" horiz-adv-x="1406" d="M20 1452h310l379 -1079l378 1079h299l-538 -1452h-291z" />
<glyph unicode="W" horiz-adv-x="2103" d="M25 1452h299l266 -999l321 999h293l324 -1003l262 1003h289l-402 -1452h-291l-331 1034l-332 -1034h-295z" />
<glyph unicode="X" horiz-adv-x="1370" d="M33 0l477 727l-475 725h340l311 -502l318 502h329l-475 -727l477 -725h-342l-313 502l-315 -502h-332z" />
<glyph unicode="Y" horiz-adv-x="1341" d="M20 1452h332l326 -575l326 575h317l-512 -842v-610h-283v610z" />
<glyph unicode="Z" horiz-adv-x="1310" d="M80 0v274l756 910h-730v268h1106v-264l-768 -918h779v-270h-1143z" />
<glyph unicode="[" horiz-adv-x="649" d="M166 -336v1995h473v-207h-246v-1577h246v-211h-473z" />
<glyph unicode="\" horiz-adv-x="974" d="M0 1470h252l723 -1488h-250z" />
<glyph unicode="]" horiz-adv-x="649" d="M10 -125h244v1577h-244v207h473v-1995h-473v211z" />
<glyph unicode="^" horiz-adv-x="1085" d="M33 719l405 733h209l406 -733h-256l-252 473l-252 -473h-260z" />
<glyph unicode="_" horiz-adv-x="1071" d="M12 0h1047v-223h-1047v223z" />
<glyph unicode="`" horiz-adv-x="606" d="M53 1436h316l184 -308h-221z" />
<glyph unicode="a" horiz-adv-x="1103" d="M84 276q0 127 83 204t218 100l248 36q76 8 76 72q0 57 -44 94t-127 37t-137 -47q-49 -47 -55 -117l-242 52q14 129 128 230t322 101t314 -106t107 -277v-495q0 -90 12 -160h-250q-10 51 -10 121q-94 -150 -297 -150q-156 0 -251 89t-95 216zM356 291q0 -51 35 -82 q33 -35 111 -35t142 54t65 180v45l-228 -35q-125 -18 -125 -127z" />
<glyph unicode="b" horiz-adv-x="1253" d="M145 0v1483h269v-586q35 55 118 98q84 39 187 39q215 0 340 -146t125 -381t-131 -380q-131 -152 -341 -152t-302 148v-123h-265zM410 506q0 -131 72 -209t181 -78q108 0 178 77t70 211t-71 208q-68 76 -178 76t-182 -77q-70 -77 -70 -208z" />
<glyph unicode="c" horiz-adv-x="1126" d="M70 506q0 231 151 381q147 151 357 151t329 -100q125 -98 158 -240l-244 -82q-49 170 -223 170q-108 0 -182 -76t-74 -206q0 -131 76 -208t177 -77t157 49t79 121l240 -80q-37 -137 -159 -238t-330 -101t-360 152q-152 153 -152 384z" />
<glyph unicode="d" horiz-adv-x="1255" d="M70 500q0 228 135 381q139 151 352 151t281 -125v576h268v-1301q0 -109 8 -182h-260q-10 57 -10 117q-33 -61 -108 -101t-175 -41q-219 0 -352 152q-139 145 -139 373zM344 503q0 -130 70 -208q72 -76 179 -76t178 77t71 211t-70 208q-70 73 -177 73t-181 -75 q-70 -80 -70 -210z" />
<glyph unicode="e" horiz-adv-x="1132" d="M70 502q0 240 147 388q146 148 345 148h3q236 0 365 -139q133 -135 133 -383q0 -23 -2 -37v-33l-2 -14h-721q4 -98 79 -164q74 -65 172 -65h3h2q172 0 227 153l228 -67q-39 -137 -160 -230q-125 -90 -299 -90q-217 1 -369 147q-151 146 -151 386zM344 618h451 q-5 82 -61 140t-160 59q-104 -1 -166 -63t-64 -136z" />
<glyph unicode="f" horiz-adv-x="729" d="M29 774v234h168v114q0 172 100 274q99 101 263 101h3q92 0 135 -20v-230q-37 10 -91 10h-3q-52 0 -92 -31q-41 -32 -41 -108v-110h227v-234h-227v-774h-274v774h-168z" />
<glyph unicode="g" horiz-adv-x="1222" d="M74 -55l245 65q16 -88 80 -139t156 -51q268 0 268 280v74q-33 -53 -105 -91t-175 -38q-201 0 -335 139q-134 138 -134 346t132 352t337 144q106 0 184 -39q78 -45 102 -98v119h263v-899q0 -227 -131 -379q-133 -150 -398 -150q-201 0 -335 108t-154 257zM348 534 q0 -116 68 -186q67 -69 170 -69h3q105 0 173 69q65 71 65 184q0 117 -69 188q-66 68 -164 68h-6q-102 0 -171 -70q-69 -68 -69 -184z" />
<glyph unicode="h" d="M145 0v1483h273v-559q92 110 273 110t280 -112q94 -113 94 -287v-635h-272v588q0 92 -48 145q-43 55 -132 55t-142 -55q-51 -57 -53 -141v-592h-273z" />
<glyph unicode="i" horiz-adv-x="563" d="M113 1337q0 68 49 119t119 51q71 0 119 -49t48 -119q0 -71 -48 -119q-50 -48 -120 -48t-118 48q-49 49 -49 117zM145 0v1008h273v-1008h-273z" />
<glyph unicode="j" horiz-adv-x="563" d="M-51 -170q51 -10 84 -10q112 0 112 119v1069h273v-1096q0 -148 -86 -240t-230 -92q-98 0 -153 23v227zM113 1339q0 70 49 120t119 50q71 0 119 -49t48 -120t-49 -119q-51 -47 -119 -47t-118 47q-49 48 -49 118z" />
<glyph unicode="k" horiz-adv-x="1144" d="M145 0v1483h273v-850l348 375h356l-403 -424l411 -584h-333l-267 385l-112 -119v-266h-273z" />
<glyph unicode="l" horiz-adv-x="563" d="M145 0v1483h273v-1483h-273z" />
<glyph unicode="m" horiz-adv-x="1814" d="M145 0v1008h261v-123q40 71 124 111t170 40q219 0 299 -168q106 168 320 168q152 0 258 -95t106 -288v-653h-264v598q0 84 -43 139q-47 51 -133 51t-137 -57t-51 -141v-590h-271v598q0 86 -45 139q-47 51 -132 51t-138 -55q-51 -57 -51 -143v-590h-273z" />
<glyph unicode="n" d="M145 0v1008h265v-125q44 71 122 111t168 40q178 0 272 -110t93 -289v-635h-272v588q0 92 -48 145q-43 55 -133 55t-142 -58t-52 -150v-580h-273z" />
<glyph unicode="o" d="M70 504q0 234 150 384t378 150q229 0 377 -151q151 -150 151 -383t-151 -383q-147 -152 -377 -152t-377 152q-152 150 -151 383zM342 504q0 -135 75 -211t181 -76t181 76t75 211t-75 211t-181 76t-181 -76t-75 -211z" />
<glyph unicode="p" horiz-adv-x="1253" d="M145 -389v1397h265v-123q40 63 120 104t189 41q213 0 339 -145t126 -375t-131 -385q-135 -150 -340 -150t-295 123v-487h-273zM414 504q0 -129 72 -207t180 -78q109 0 179 77t70 209t-71 206q-68 75 -178 75t-182 -76q-70 -76 -70 -206z" />
<glyph unicode="q" horiz-adv-x="1245" d="M70 505q0 228 135 376q130 151 345 151h3q121 0 192 -45q74 -41 103 -96v117h260v-1397h-266v489q-76 -125 -286 -125t-348 151t-138 379zM344 505q0 -128 70 -208q74 -78 180 -78t180 78q70 80 70 208t-70 208q-74 75 -180 75t-180 -75q-70 -80 -70 -208z" />
<glyph unicode="r" horiz-adv-x="800" d="M145 0v1008h265v-150q74 158 286 158q11 0 64 -4v-275q-35 8 -82 8q-117 -1 -189 -67t-71 -217v-461h-273z" />
<glyph unicode="s" horiz-adv-x="944" d="M59 281l234 51q2 -61 51 -111q48 -43 122 -43t109 29t35 72q0 76 -108 98l-133 31q-139 31 -213 110q-70 82 -70 205t107 219q113 96 270 96q197 0 301 -104q81 -91 94 -186l-227 -52q-10 57 -49 95q-36 41 -102 41t-107 -29q-37 -29 -37 -72q0 -76 92 -90l143 -31 q143 -31 224 -112q75 -86 75 -209t-101 -221t-290 -99q-106 0 -193 34t-126 79q-49 51 -70 102q-25 50 -31 97z" />
<glyph unicode="t" horiz-adv-x="763" d="M29 766v242h51q74 0 117 45q39 45 39 114v142h245v-301h203v-242h-203v-422q0 -61 28 -89t89 -28t86 9v-226q-55 -24 -147 -24h-7q-150 0 -233 84q-86 80 -86 227v469h-182z" />
<glyph unicode="u" horiz-adv-x="1200" d="M135 371v637h273v-582q0 -88 46 -145t136 -57t141 55q51 51 51 143v586h273v-826q0 -86 10 -182h-260q-8 35 -8 109q-43 -72 -117 -101q-70 -35 -162 -35q-178 0 -280 113q-102 119 -103 285z" />
<glyph unicode="v" horiz-adv-x="1116" d="M20 1008h299l250 -676l240 676h287l-391 -1008h-273z" />
<glyph unicode="w" horiz-adv-x="1701" d="M25 1008h286l187 -648l219 648h287l217 -650l186 650h270l-315 -1008h-272l-236 688l-231 -688h-277z" />
<glyph unicode="x" horiz-adv-x="1089" d="M25 0l358 506l-358 502h323q45 -68 103 -148q96 -150 98 -151l199 299h309l-352 -494l364 -514h-319l-211 309q-12 -20 -60 -88l-90 -135q-13 -22 -33 -50t-24 -36h-307z" />
<glyph unicode="y" horiz-adv-x="1146" d="M14 1008h305l269 -590l248 590h290l-632 -1405h-289l237 524z" />
<glyph unicode="z" horiz-adv-x="985" d="M76 0v240l477 532h-465v236h813v-228l-491 -542h499v-238h-833z" />
<glyph unicode="{" horiz-adv-x="768" d="M92 555v227q205 0 205 191v291q0 195 104 295t293 100h64v-207h-62q-170 0 -170 -182v-344q0 -96 -53 -163t-154 -95q99 -25 153 -93t54 -165v-342q0 -184 170 -185h62v-207h-64q-190 0 -294 102t-103 296v291q0 190 -205 190z" />
<glyph unicode="|" horiz-adv-x="559" d="M166 -324v1983h227v-1983h-227z" />
<glyph unicode="}" horiz-adv-x="768" d="M10 -117h60q172 0 172 185v342q0 96 53 165q55 68 151 93q-100 28 -152 96t-52 162v344q0 182 -172 182h-60v207h64q188 0 292 -100t103 -295v-291q0 -191 207 -191v-227q-207 0 -207 -190v-291q0 -195 -103 -296t-292 -102h-64v207z" />
<glyph unicode="~" horiz-adv-x="1193" d="M53 571q117 215 340 215q106 0 213 -57l96 -53q51 -29 109 -29q113 0 180 105l150 -121q-117 -213 -338 -213q-111 0 -217 59l-97 53q-51 27 -102 27q-113 0 -182 -106z" />
<glyph unicode="&#xa1;" horiz-adv-x="618" d="M145 -430l66 1010h199l63 -1010h-328zM147 874q-1 66 47 115t114 49t115 -48q48 -48 48 -116t-49 -112q-45 -49 -113 -49t-115 48q-47 47 -47 113z" />
<glyph unicode="&#xa2;" horiz-adv-x="1124" d="M84 661q0 183 108 315t281 167v186h207v-184q143 -20 233 -109q90 -84 121 -196l-231 -76q-49 158 -213 158q-104 0 -176 -70q-70 -74 -70 -192t72 -193q74 -70 169 -70t152 47q55 47 74 111l229 -74q-35 -115 -127 -198q-92 -90 -233 -111v-172h-207v178 q-176 37 -280 170q-109 131 -109 313z" />
<glyph unicode="&#xa3;" horiz-adv-x="1212" d="M121 0v227q102 37 158 105q59 66 59 155q0 31 -8 72h-201v209h125q-37 100 -37 195q0 162 121 278q118 119 326 119t312 -117t107 -270l-245 -37q-2 90 -48 142t-127 52q-80 0 -131 -44t-51 -124t45 -194h375v-209h-309q0 -10 2 -20v-23q0 -188 -148 -278h318 q76 0 121 47t45 125l244 -21q0 -169 -102 -279t-265 -110h-686z" />
<glyph unicode="&#xa4;" horiz-adv-x="1202" d="M74 133l145 148q-59 108 -59 225t61 217l-147 149l164 164l151 -153q104 55 217 55t209 -53l150 151l163 -164l-145 -145q63 -100 63 -222t-61 -226l143 -146l-163 -164l-148 150q-96 -53 -215 -53t-217 55l-147 -152zM389 502q0 -96 62 -154q57 -61 153 -61t154 61 q61 58 61 154t-61 153q-58 61 -154 61t-153 -61q-62 -57 -62 -153z" />
<glyph unicode="&#xa5;" horiz-adv-x="1257" d="M45 1329h309l283 -502l278 502h297l-315 -526h236v-191h-369v-143h369v-193h-369v-276h-266v276h-355v193h355v143h-355v191h219z" />
<glyph unicode="&#xa6;" horiz-adv-x="559" d="M166 -324v816h227v-816h-227zM166 844v815h227v-815h-227z" />
<glyph unicode="&#xa7;" horiz-adv-x="1148" d="M137 -45l256 43q0 -92 47 -143t126 -51t122 38q43 39 43 112t-90 120l-209 108q-129 66 -209 147t-80 212q0 170 158 256q-158 115 -158 292t131 283q129 111 316 111t299 -107q117 -106 123 -276l-258 -43q0 94 -47 144t-123 50t-121 -41t-45 -102q0 -86 90 -127 l207 -107q137 -74 214 -152t77 -208q0 -170 -158 -256q158 -115 158 -291t-129 -286q-133 -109 -319 -109t-300 104t-121 279zM393 592q0 -90 88 -135l209 -111q66 53 66 117q0 90 -88 135l-209 111q-66 -53 -66 -117z" />
<glyph unicode="&#xa8;" horiz-adv-x="829" d="M55 1286q0 58 42 102q41 44 101 44t103 -43t43 -103t-43 -102q-45 -41 -103 -41t-100 42t-43 101zM485 1288q0 60 40 102q39 42 101 42t105 -43t43 -103t-43 -102q-45 -41 -104 -41t-101 41q-41 45 -41 104z" />
<glyph unicode="&#xa9;" horiz-adv-x="1671" d="M80 725q0 311 219 537q221 223 535 223t535 -223q222 -224 222 -536t-222 -536t-535 -223q-313 0 -535 221q-219 226 -219 537zM254 725q0 -252 168 -424t412 -172t411 174q168 170 168 422t-168 425q-167 173 -411 173t-412 -173t-168 -425zM440 723q0 174 115 291 q115 116 271 116t251 -76q94 -76 121 -182l-186 -63q-37 129 -170 129q-82 0 -138 -57t-56 -159t57 -157q53 -59 133 -59q142 0 182 131l182 -62q-27 -104 -121 -181q-95 -77 -251 -77t-273 116t-117 290z" />
<glyph unicode="&#xaa;" horiz-adv-x="866" d="M113 813q0 180 211 213l170 29q51 8 51 49q0 36 -29 58t-82 22t-88 -31t-37 -76l-182 37q6 92 88 164q85 72 231 72t226 -76q76 -78 76 -197v-348q0 -53 10 -111h-191q-6 31 -6 82q-68 -102 -193 -102t-188 64q-67 63 -67 151zM319 825q0 -31 23 -53t73 -22t90 34t40 115 v33l-144 -23q-82 -8 -82 -84z" />
<glyph unicode="&#xab;" horiz-adv-x="1073" d="M55 604l283 404h256l-279 -406l279 -395h-258zM500 604l280 404h258l-280 -406l278 -395h-258z" />
<glyph unicode="&#xac;" horiz-adv-x="1208" d="M92 678v225h1002v-624h-234v399h-768z" />
<glyph unicode="&#xad;" horiz-adv-x="778" d="M92 487v242h594v-242h-594z" />
<glyph unicode="&#xae;" horiz-adv-x="1671" d="M80 725q0 311 219 537q221 223 535 223t535 -223q222 -224 222 -536t-222 -536t-535 -223q-313 0 -535 221q-219 226 -219 537zM254 725q0 -252 168 -424t412 -172t411 174q168 170 168 422t-168 425q-167 173 -411 173t-412 -173t-168 -425zM561 322v819h324 q117 0 199 -77t81 -190q0 -80 -42 -142t-115 -95l163 -315h-215l-141 284h-59v-284h-195zM756 766h94q53 0 88 29q31 29 31 79t-33 79q-33 28 -86 28h-94v-215z" />
<glyph unicode="&#xaf;" horiz-adv-x="686" d="M55 1182v198h576v-198h-576z" />
<glyph unicode="&#xb0;" horiz-adv-x="763" d="M41 1021q0 141 100 239q101 98 239 98t243 -98q100 -100 100 -240t-100 -236q-105 -96 -243 -96t-238 96t-101 237zM246 1022q0 -63 39 -104q43 -39 97 -39t97 39q37 43 37 105t-37 101q-39 39 -97 39t-97 -39t-39 -102z" />
<glyph unicode="&#xb1;" horiz-adv-x="1212" d="M127 90v223h958v-223h-958zM127 641v221h365v252h229v-252h364v-221h-364v-252h-229v252h-365z" />
<glyph unicode="&#xb2;" horiz-adv-x="806" d="M106 698v25q0 213 183 321l123 72q78 47 77 105q0 29 -21 55q-22 26 -66 24q-44 0 -74 -26q-29 -33 -29 -66t6 -51l-186 -2q-8 25 -8 59q0 111 77 183q78 71 214 71t216 -71q78 -72 78 -178q0 -135 -161 -230l-144 -86q-25 -14 -24 -31h335v-174h-596z" />
<glyph unicode="&#xb3;" horiz-adv-x="841" d="M104 918l187 43q2 -45 38 -77t86 -32t81 27q30 27 30 67t-30 66q-65 43 -144 10l-67 139l178 121h-330v170h582v-168l-185 -125q94 -12 150 -69q56 -58 57 -158q0 -100 -88 -175t-227 -75q-138 0 -222 71t-96 165z" />
<glyph unicode="&#xb4;" horiz-adv-x="604" d="M53 1128l187 308h311l-279 -308h-219z" />
<glyph unicode="&#xb5;" horiz-adv-x="1216" d="M147 -389v1397h273v-582q0 -88 46 -145t136 -57t141 55q51 51 52 143v586h272v-826q0 -111 10 -182h-260q-8 35 -8 109q-43 -72 -117 -101q-70 -35 -150 -35t-122 15v-377h-273z" />
<glyph unicode="&#xb6;" horiz-adv-x="1363" d="M53 1040q0 184 140 299q141 113 346 113h792v-209h-198v-1640h-218v1640h-196v-1640h-213v1013h-35q-174 0 -296 120t-122 304z" />
<glyph unicode="&#xb7;" horiz-adv-x="589" d="M125 633q0 74 51 125q53 49 125 49t125 -49q51 -51 51 -125t-52 -123t-124 -49t-125 49q-51 49 -51 123z" />
<glyph unicode="&#xb8;" horiz-adv-x="610" d="M51 -362l88 110q76 -76 157 -76t81 58q0 25 -21 41q-26 16 -60 16t-52 -8l-74 92l98 156h170l-80 -125q90 -4 144 -52t55 -126q0 -78 -65 -136q-59 -57 -197 -57q-83 0 -147 33t-97 74z" />
<glyph unicode="&#xb9;" horiz-adv-x="620" d="M78 1157v135q90 0 144 48t67 112h186v-752h-211v457h-186z" />
<glyph unicode="&#xba;" horiz-adv-x="987" d="M119 976q0 160 106 269q111 105 272 105t267 -106t106 -269q0 -164 -106 -270q-106 -107 -268 -107t-271 107q-106 111 -106 271zM330 976q0 -87 47 -138q49 -50 119 -50t118 50q48 51 48 138t-48 135t-118 48t-118 -48t-48 -135z" />
<glyph unicode="&#xbb;" horiz-adv-x="1073" d="M35 1008h256l282 -404l-278 -397h-258l276 395zM479 207l279 395l-279 406h256l283 -404l-281 -397h-258z" />
<glyph unicode="&#xbc;" horiz-adv-x="1654" d="M94 1034v135q90 1 144 49t67 111h187v-751h-211v456h-187zM199 0l938 1329h237l-938 -1329h-237zM879 145v203l346 406h223v-447h125v-162h-125v-145h-205v145h-364zM1044 307h199v234z" />
<glyph unicode="&#xbd;" horiz-adv-x="1691" d="M94 1034v135q90 1 144 49t67 111h187v-751h-211v456h-187zM197 0l938 1329h237l-938 -1329h-237zM1001 0v25q0 213 183 321l123 72q78 47 77 104q0 29 -22 56q-23 24 -66 24t-75 -29q-27 -31 -27 -63t6 -51l-186 -2q-8 25 -8 59q0 110 78 182t213 72q136 0 215 -72 t79 -178q0 -135 -161 -229l-144 -86q-25 -16 -24 -31h335v-174h-596z" />
<glyph unicode="&#xbe;" horiz-adv-x="1810" d="M102 795l187 43q2 -45 37 -77t86 -32t82 27q30 28 30 68t-32 65q-33 23 -74 23t-68 -13l-67 139l178 121h-330v170h582v-168l-185 -125q94 -12 150 -69t57 -157q0 -100 -88 -176q-88 -75 -227 -75q-138 0 -222 71t-96 165zM369 0l938 1329h237l-938 -1329h-237zM1034 145 v203l346 406h224v-447h125v-162h-125v-145h-205v145h-365zM1200 307h199v234z" />
<glyph unicode="&#xbf;" horiz-adv-x="1009" d="M29 -53q0 223 198 364l84 60q111 76 111 198v13h221q6 -41 6 -84q0 -184 -157 -299l-99 -72q-86 -66 -86 -153t53 -138q48 -53 150 -53t158 63q53 66 53 136t-12 102l262 -25q10 -51 10 -90q0 -174 -125 -303q-131 -127 -350 -127t-350 121q-127 121 -127 287zM367 877 q0 69 49 115q50 46 116 46t113 -47t47 -115t-47 -114q-47 -47 -114 -47t-117 47q-47 47 -47 115z" />
<glyph unicode="&#xc0;" horiz-adv-x="1478" d="M20 0l558 1452h327l553 -1452h-307l-121 332h-590l-121 -332h-299zM338 1815h334l213 -261h-250zM535 590h401l-201 549z" />
<glyph unicode="&#xc1;" horiz-adv-x="1478" d="M20 0l558 1452h327l553 -1452h-307l-121 332h-590l-121 -332h-299zM535 590h401l-201 549zM596 1554l211 261h336l-297 -261h-250z" />
<glyph unicode="&#xc2;" horiz-adv-x="1478" d="M20 0l558 1452h327l553 -1452h-307l-121 332h-590l-121 -332h-299zM348 1554l246 261h278l250 -261h-256l-137 134l-133 -134h-248zM535 590h401l-201 549z" />
<glyph unicode="&#xc3;" horiz-adv-x="1478" d="M20 0l558 1452h327l553 -1452h-307l-121 332h-590l-121 -332h-299zM381 1550v56q0 106 58 164t143 59q85 0 174 -55q76 -39 96 -39q59 0 59 63v25h164v-58q0 -109 -59 -166q-55 -59 -138 -59t-165 49q-81 49 -109 49q-59 0 -59 -88h-164zM535 590h401l-201 549z" />
<glyph unicode="&#xc4;" horiz-adv-x="1478" d="M20 0l558 1452h327l553 -1452h-307l-121 332h-590l-121 -332h-299zM262 1684q0 61 41 106q43 43 105 43t106 -43q43 -43 43 -105q0 -63 -43 -105t-106 -42q-62 0 -104 42t-42 104zM535 590h401l-201 549zM913 1684q0 61 41 106q42 43 106 43t107 -43t43 -105 q0 -63 -43 -105t-106 -42t-105 42t-43 104z" />
<glyph unicode="&#xc5;" horiz-adv-x="1478" d="M20 0l523 1360q-86 80 -86 196t83 192q84 77 196 77t195 -77t83 -190t-78 -190l522 -1368h-307l-121 332h-590l-121 -332h-299zM535 590h401l-201 549zM633 1554q0 -47 31 -73q30 -29 72 -29t71 29q31 26 31 73t-30 76t-73 29t-73 -29t-29 -76z" />
<glyph unicode="&#xc6;" horiz-adv-x="2170" d="M16 0l963 1452h1073v-266h-625v-332h566v-252h-566v-336h627v-266h-911v342h-561l-220 -342h-346zM733 580h410v639z" />
<glyph unicode="&#xc7;" horiz-adv-x="1564" d="M80 736q0 326 219 536q213 211 507 211t460 -142q170 -139 219 -340l-266 -83q-31 123 -129 208q-100 84 -274 84t-309 -126q-134 -126 -134 -352t131 -357q135 -129 314 -129t276 88q102 88 137 209l264 -80q-27 -105 -92 -207t-195 -182q-123 -82 -288 -99l-48 -73 q90 -4 144 -52t55 -126q0 -76 -63 -136q-66 -57 -199 -57q-79 0 -145 33t-99 74l88 110q76 -76 157 -76t81 58q0 27 -23 41q-20 16 -57 16t-53 -8l-74 92l66 102q-287 25 -480 230q-190 207 -190 533z" />
<glyph unicode="&#xc8;" horiz-adv-x="1191" d="M166 0v1452h909v-266h-626v-332h567v-252h-567v-336h626v-266h-909zM262 1815h334l213 -261h-250z" />
<glyph unicode="&#xc9;" horiz-adv-x="1191" d="M166 0v1452h909v-266h-626v-332h567v-252h-567v-336h626v-266h-909zM459 1554l211 261h336l-297 -261h-250z" />
<glyph unicode="&#xca;" horiz-adv-x="1191" d="M166 0v1452h909v-266h-626v-332h567v-252h-567v-336h626v-266h-909zM229 1554l246 261h279l250 -261h-256l-138 134l-133 -134h-248z" />
<glyph unicode="&#xcb;" horiz-adv-x="1191" d="M166 0v1452h909v-266h-626v-332h567v-252h-567v-336h626v-266h-909zM248 1685q0 62 42 105t104 43t106 -43t43 -105q0 -63 -43 -105t-108 -42q-64 0 -104 42t-40 105zM709 1684q0 61 41 106q43 43 105 43q61 0 105 -43t44 -105q0 -63 -43 -105t-107 -42t-104 42 q-41 42 -41 104z" />
<glyph unicode="&#xcc;" horiz-adv-x="618" d="M-98 1815h334l213 -261h-250zM166 0v1452h287v-1452h-287z" />
<glyph unicode="&#xcd;" horiz-adv-x="618" d="M166 0v1452h287v-1452h-287zM170 1554l211 261h336l-297 -261h-250z" />
<glyph unicode="&#xce;" horiz-adv-x="618" d="M-70 1554l246 261h279l250 -261h-256l-138 134l-133 -134h-248zM166 0v1452h287v-1452h-287z" />
<glyph unicode="&#xcf;" horiz-adv-x="618" d="M-25 1686q0 63 41 102q36 41 98 41t105 -42t43 -102t-41 -102q-45 -41 -106 -41t-101 40t-39 104zM166 0v1452h287v-1452h-287zM362 1685q0 60 41 102t101 42t103 -42q42 -42 42 -103q0 -62 -42 -102t-102 -40t-102 41q-41 42 -41 102z" />
<glyph unicode="&#xd0;" horiz-adv-x="1529" d="M33 645v209h180v598h520q317 0 517 -194t200 -532t-201 -532t-518 -194h-518v645h-180zM496 262h225q193 0 315 119t121 345q0 226 -123 343q-121 121 -311 121h-227v-336h280v-209h-280v-383z" />
<glyph unicode="&#xd1;" horiz-adv-x="1570" d="M166 0v1452h352l604 -960v960h283v-1452h-297l-659 1030v-1030h-283zM442 1550v56q0 106 58 164t147 59q88 0 170 -55q76 -39 96 -39q59 0 60 63v25h164v-58q0 -109 -60 -166q-55 -59 -141 -59t-172 57q-70 41 -98 41q-59 0 -60 -88h-164z" />
<glyph unicode="&#xd2;" horiz-adv-x="1652" d="M80 726q0 339 219 548t527 209t528 -209t219 -548q0 -339 -219 -548q-220 -209 -528 -209t-527 209t-219 548zM373 727q0 -229 135 -358q137 -125 318 -125t319 125q135 129 135 358t-135 358q-137 125 -319 125t-318 -125q-135 -129 -135 -358zM412 1815h333l213 -261 h-249z" />
<glyph unicode="&#xd3;" horiz-adv-x="1652" d="M80 726q0 339 219 548t527 209t528 -209t219 -548q0 -339 -219 -548q-220 -209 -528 -209t-527 209t-219 548zM373 727q0 -229 135 -358q137 -125 318 -125t319 125q135 129 135 358t-135 358q-137 125 -319 125t-318 -125q-135 -129 -135 -358zM682 1554l211 261h336 l-297 -261h-250z" />
<glyph unicode="&#xd4;" horiz-adv-x="1652" d="M80 726q0 339 219 548t527 209t528 -209t219 -548q0 -339 -219 -548q-220 -209 -528 -209t-527 209t-219 548zM373 727q0 -229 135 -358q137 -125 318 -125t319 125q135 129 135 358t-135 358q-137 125 -319 125t-318 -125q-135 -129 -135 -358zM440 1554l246 261h279 l249 -261h-256l-137 134l-133 -134h-248z" />
<glyph unicode="&#xd5;" horiz-adv-x="1652" d="M80 726q0 339 219 548t527 209t528 -209t219 -548q0 -339 -219 -548q-220 -209 -528 -209t-527 209t-219 548zM373 727q0 -229 135 -358q137 -125 318 -125t319 125q135 129 135 358t-135 358q-137 125 -319 125t-318 -125q-135 -129 -135 -358zM475 1550v56 q1 106 59 164t146 59q88 0 170 -55q76 -39 96 -39q59 0 60 63v25h163v-58q0 -109 -59 -166q-55 -59 -141 -59t-172 57q-70 41 -99 41q-59 0 -59 -88h-164z" />
<glyph unicode="&#xd6;" horiz-adv-x="1652" d="M80 726q0 339 219 548t527 209t528 -209t219 -548q0 -339 -219 -548q-220 -209 -528 -209t-527 209t-219 548zM338 1685q0 62 42 105t105 43t107 -43t43 -105q0 -63 -43 -105q-42 -42 -106 -42t-106 42t-42 105zM373 727q0 -229 135 -358q137 -125 318 -125t319 125 q135 129 135 358t-135 358q-137 125 -319 125t-318 -125q-135 -129 -135 -358zM1020 1684q0 61 41 106q43 43 105 43t106 -43t43 -105q0 -63 -43 -105q-44 -42 -106 -42t-104 42t-42 104z" />
<glyph unicode="&#xd7;" horiz-adv-x="1153" d="M76 260l338 344l-338 344l164 162l335 -342l338 342l164 -160l-340 -346l340 -344l-162 -164l-340 344l-337 -342z" />
<glyph unicode="&#xd8;" horiz-adv-x="1652" d="M80 740q0 326 219 534q219 209 526 209q203 0 371 -94l143 184l181 -135l-144 -187q197 -211 197 -537t-219 -536q-219 -209 -529 -209q-199 0 -370 92l-140 -180l-184 133l145 187q-196 213 -196 539zM373 727q0 -176 82 -295l569 735q-92 43 -199 43q-180 0 -317 -125 q-135 -129 -135 -358zM629 287q92 -43 196 -43q182 0 320 125q135 129 135 358q0 176 -82 295z" />
<glyph unicode="&#xd9;" horiz-adv-x="1419" d="M152 514v938h282v-917q0 -141 74 -216q70 -75 201 -75t204 75q72 76 72 216v917h283v-938q0 -256 -158 -403q-159 -144 -400 -144t-401 144q-158 147 -157 403zM324 1815h333l213 -261h-249z" />
<glyph unicode="&#xda;" horiz-adv-x="1419" d="M152 514v938h282v-917q0 -141 74 -216q70 -75 201 -75t204 75q72 76 72 216v917h283v-938q0 -256 -158 -403q-159 -144 -400 -144t-401 144q-158 147 -157 403zM535 1554l210 261h336l-297 -261h-249z" />
<glyph unicode="&#xdb;" horiz-adv-x="1419" d="M152 514v938h282v-917q0 -141 74 -216q70 -75 201 -75t204 75q72 76 72 216v917h283v-938q0 -256 -158 -403q-159 -144 -400 -144t-401 144q-158 147 -157 403zM324 1554l245 261h279l250 -261h-256l-137 134l-134 -134h-247z" />
<glyph unicode="&#xdc;" horiz-adv-x="1419" d="M152 514v938h282v-917q0 -141 74 -216q70 -75 201 -75t204 75q72 76 72 216v917h283v-938q0 -256 -158 -403q-159 -144 -400 -144t-401 144q-158 147 -157 403zM317 1685q0 62 42 105q43 43 105 43t105 -43t43 -105q0 -63 -43 -105t-105 -42t-104 42t-43 105zM809 1685 q0 62 42 105t104 43q61 0 105 -43t44 -105q0 -63 -43 -105t-105 -42t-105 42q-42 42 -42 105z" />
<glyph unicode="&#xdd;" horiz-adv-x="1341" d="M20 1452h332l326 -575l326 575h317l-512 -842v-610h-283v610zM510 1554l211 261h336l-297 -261h-250z" />
<glyph unicode="&#xde;" horiz-adv-x="1236" d="M166 0v1452h283v-264h249q212 0 350 -129t138 -323t-138 -322t-348 -129h-251v-285h-283zM451 526h223q104 0 166 56q61 57 61 151q0 95 -59 153t-168 58h-223v-418z" />
<glyph unicode="&#xdf;" horiz-adv-x="1220" d="M145 0v995q0 238 142 361q139 127 346 127t336 -109t129 -266q0 -190 -180 -307l-41 -25q-56 -35 -55 -68t18 -44q12 -12 57 -33l61 -27q100 -41 168 -125q62 -85 62 -199t-94 -210q-92 -100 -266 -100t-261 92q-88 93 -88 200l219 43q0 -51 32 -90t87 -39t88 29 q29 29 29 65q0 74 -98 115l-62 25q-225 92 -225 274q0 150 137 238l41 26q100 63 100 148q0 61 -49 104t-143 43q-93 -1 -157 -67t-64 -199v-977h-269z" />
<glyph unicode="&#xe0;" horiz-adv-x="1103" d="M84 276q0 127 83 204t218 100l248 36q76 8 76 72q0 57 -44 94t-127 37t-137 -47q-49 -47 -55 -117l-242 52q14 129 128 230t322 101t314 -106t107 -277v-495q0 -90 12 -160h-250q-10 51 -10 121q-94 -150 -297 -150q-156 0 -251 89t-95 216zM186 1436h316l184 -308h-221z M356 291q0 -51 35 -82q33 -35 111 -35t142 54t65 180v45l-228 -35q-125 -18 -125 -127z" />
<glyph unicode="&#xe1;" horiz-adv-x="1103" d="M84 276q0 127 83 204t218 100l248 36q76 8 76 72q0 57 -44 94t-127 37t-137 -47q-49 -47 -55 -117l-242 52q14 129 128 230t322 101t314 -106t107 -277v-495q0 -90 12 -160h-250q-10 51 -10 121q-94 -150 -297 -150q-156 0 -251 89t-95 216zM356 291q0 -51 35 -82 q33 -35 111 -35t142 54t65 180v45l-228 -35q-125 -18 -125 -127zM410 1128l186 308h311l-278 -308h-219z" />
<glyph unicode="&#xe2;" horiz-adv-x="1103" d="M84 276q0 127 83 204t218 100l248 36q76 8 76 72q0 57 -44 94t-127 37t-137 -47q-49 -47 -55 -117l-242 52q14 129 128 230t322 101t314 -106t107 -277v-495q0 -90 12 -160h-250q-10 51 -10 121q-94 -150 -297 -150q-156 0 -251 89t-95 216zM182 1130l226 302h270 l225 -302h-219l-145 154l-144 -154h-213zM356 291q0 -51 35 -82q33 -35 111 -35t142 54t65 180v45l-228 -35q-125 -18 -125 -127z" />
<glyph unicode="&#xe3;" horiz-adv-x="1103" d="M84 276q0 127 83 204t218 100l248 36q76 8 76 72q0 57 -44 94t-127 37t-137 -47q-49 -47 -55 -117l-242 52q14 129 128 230t322 101t314 -106t107 -277v-495q0 -90 12 -160h-250q-10 51 -10 121q-94 -150 -297 -150q-156 0 -251 89t-95 216zM195 1139v43q0 121 63 182 q59 66 146 66t162 -46t110 -47q68 0 67 88h164v-36q0 -119 -59 -189q-62 -63 -152 -63t-153 45q-73 45 -109 45q-70 0 -72 -88h-167zM356 291q0 -51 35 -82q33 -35 111 -35t142 54t65 180v45l-228 -35q-125 -18 -125 -127z" />
<glyph unicode="&#xe4;" horiz-adv-x="1103" d="M84 276q0 127 83 204t218 100l248 36q76 8 76 72q0 57 -44 94t-127 37t-137 -47q-49 -47 -55 -117l-242 52q14 129 128 230t322 101t314 -106t107 -277v-495q0 -90 12 -160h-250q-10 51 -10 121q-94 -150 -297 -150q-156 0 -251 89t-95 216zM186 1286q0 58 42 102t102 44 t102 -43q43 -43 43 -103t-43 -102q-45 -41 -103 -41q-59 0 -101 42t-42 101zM356 291q0 -51 35 -82q33 -35 111 -35t142 54t65 180v45l-228 -35q-125 -18 -125 -127zM616 1288q0 60 40 102t102 42t104 -43q43 -43 43 -103t-43 -102q-45 -41 -104 -41t-101 41q-41 45 -41 104 z" />
<glyph unicode="&#xe5;" horiz-adv-x="1103" d="M84 276q0 127 83 204t218 100l248 36q76 8 76 72q0 57 -44 94t-127 37t-137 -47q-49 -47 -55 -117l-242 52q14 129 128 230t322 101t314 -106t107 -277v-495q0 -90 12 -160h-250q-10 51 -10 121q-94 -150 -297 -150q-156 0 -251 89t-95 216zM297 1340q0 96 71 162 q70 65 164 65t165 -65t71 -162t-70 -164q-74 -64 -166 -64t-165 64q-70 68 -70 164zM356 291q0 -51 35 -82q33 -35 111 -35t142 54t65 180v45l-228 -35q-125 -18 -125 -127zM448 1337q0 -37 24 -61t58 -23q34 0 60 25q24 20 24 59t-24 64q-27 23 -60 23t-59 -23 q-23 -27 -23 -64z" />
<glyph unicode="&#xe6;" horiz-adv-x="1783" d="M84 275q0 128 83 205t218 100l258 36q76 8 76 70t-47 96q-41 39 -127 39t-144 -47q-53 -51 -59 -117l-238 50q12 131 134 231q115 100 307 100q236 0 342 -131q139 131 350 131t341 -138t130 -384q0 -72 -6 -84h-723q4 -104 78 -166q68 -66 176 -65q180 -1 231 159 l230 -71q-39 -137 -163 -229t-300 -91q-248 0 -391 181q-135 -180 -383 -181q-169 0 -271 89t-102 217zM352 291q0 -49 39 -83t118 -34t145 55t65 177v47l-238 -35q-129 -18 -129 -127zM985 618h455q-2 82 -60 140t-164 59t-166 -61t-65 -138z" />
<glyph unicode="&#xe7;" horiz-adv-x="1126" d="M70 517q0 220 151 370q147 151 357 151t329 -100q125 -98 158 -240l-244 -82q-49 170 -223 170q-108 0 -182 -76t-74 -206q0 -131 76 -208t177 -77t157 49t79 121l240 -80q-35 -127 -133 -215q-98 -98 -248 -119l-47 -73q90 -4 144 -52q55 -48 55 -126q0 -76 -64 -136 q-66 -57 -198 -57q-80 0 -146 33t-98 74l88 110q76 -76 157 -76t81 58q0 27 -23 41q-19 16 -57 16t-54 -8l-73 92l65 104q-198 29 -324 175t-126 367z" />
<glyph unicode="&#xe8;" horiz-adv-x="1132" d="M70 502q0 240 147 388q147 149 348 148q236 0 365 -139q133 -135 133 -383q0 -23 -2 -37v-33l-2 -14h-721q4 -98 79 -164t175 -65q174 -1 229 153l228 -67q-39 -137 -160 -230q-125 -90 -299 -90q-217 1 -369 147q-151 146 -151 386zM213 1436h315l185 -308h-221z M344 618h451q-5 82 -61 140t-160 59q-104 -1 -166 -63t-64 -136z" />
<glyph unicode="&#xe9;" horiz-adv-x="1132" d="M70 502q0 240 147 388q147 149 348 148q236 0 365 -139q133 -135 133 -383q0 -23 -2 -37v-33l-2 -14h-721q4 -98 79 -164t175 -65q174 -1 229 153l228 -67q-39 -137 -160 -230q-125 -90 -299 -90q-217 1 -369 147q-151 146 -151 386zM344 618h451q-5 82 -61 140t-160 59 q-104 -1 -166 -63t-64 -136zM440 1128l187 308h311l-279 -308h-219z" />
<glyph unicode="&#xea;" horiz-adv-x="1132" d="M70 502q0 240 147 388q147 149 348 148q236 0 365 -139q133 -135 133 -383q0 -23 -2 -37v-33l-2 -14h-721q4 -98 79 -164t175 -65q174 -1 229 153l228 -67q-39 -137 -160 -230q-125 -90 -299 -90q-217 1 -369 147q-151 146 -151 386zM217 1130l225 302h271l225 -302h-219 l-146 154l-143 -154h-213zM344 618h451q-5 82 -61 140t-160 59q-104 -1 -166 -63t-64 -136z" />
<glyph unicode="&#xeb;" horiz-adv-x="1132" d="M70 502q0 240 147 388q147 149 348 148q236 0 365 -139q133 -135 133 -383q0 -23 -2 -37v-33l-2 -14h-721q4 -98 79 -164t175 -65q174 -1 229 153l228 -67q-39 -137 -160 -230q-125 -90 -299 -90q-217 1 -369 147q-151 146 -151 386zM219 1286q0 58 41 102t101 44 q59 0 103 -43t44 -103t-43 -102q-45 -41 -103 -41t-101 42q-42 42 -42 101zM344 618h451q-5 82 -61 140t-160 59q-104 -1 -166 -63t-64 -136zM649 1288q0 60 40 102q39 42 101 42t105 -43t43 -103t-43 -102q-45 -41 -104 -41t-101 41q-41 45 -41 104z" />
<glyph unicode="&#xec;" horiz-adv-x="563" d="M-86 1436h315l185 -308h-221zM145 0v1008h273v-1008h-273z" />
<glyph unicode="&#xed;" horiz-adv-x="563" d="M145 0v1008h273v-1008h-273zM160 1128l186 308h311l-278 -308h-219z" />
<glyph unicode="&#xee;" horiz-adv-x="563" d="M-78 1130l225 302h271l225 -302h-219l-145 154l-144 -154h-213zM145 0v1008h273v-1008h-273z" />
<glyph unicode="&#xef;" horiz-adv-x="563" d="M-43 1287q0 56 39 99q45 41 102 41q56 0 98 -41t42 -99t-41 -99t-99 -41t-102 41q-39 43 -39 99zM145 0v1008h273v-1008h-273zM324 1288q0 59 41 98q37 41 97 41t101 -41t41 -101t-41 -97q-39 -41 -98 -41t-100 41t-41 100z" />
<glyph unicode="&#xf0;" horiz-adv-x="1189" d="M70 472q0 218 147 347q152 127 332 127t254 -78q-43 133 -152 240l-280 -119l-66 164l178 76q-100 55 -227 94l84 205q229 -57 405 -187l234 99l70 -166l-158 -66q231 -260 231 -641q0 -258 -137 -428t-377 -170q-240 1 -389 143t-149 360zM340 473q0 -117 74 -188 q76 -70 181 -70t180 69q75 70 75 190t-75 189t-180 69t-181 -70q-74 -72 -74 -189z" />
<glyph unicode="&#xf1;" d="M145 0v1008h265v-125q44 71 122 111t168 40q178 0 272 -110t93 -289v-635h-272v588q0 92 -48 145q-43 55 -133 55t-142 -58t-52 -150v-580h-273zM258 1139v43q0 120 62 184t151 64t161 -46t107 -47q68 0 68 88h164v-36q-1 -121 -61 -187t-148 -65q-88 0 -157 45 q-68 45 -107 45q-70 0 -72 -88h-168z" />
<glyph unicode="&#xf2;" d="M70 504q0 234 150 384t378 150q229 0 377 -151q151 -150 151 -383t-151 -383q-147 -152 -377 -152t-377 152q-152 150 -151 383zM223 1436h316l184 -308h-221zM342 504q0 -135 75 -211t181 -76t181 76t75 211t-75 211t-181 76t-181 -76t-75 -211z" />
<glyph unicode="&#xf3;" d="M70 504q0 234 150 384t378 150q229 0 377 -151q151 -150 151 -383t-151 -383q-147 -152 -377 -152t-377 152q-152 150 -151 383zM342 504q0 -135 75 -211t181 -76t181 76t75 211t-75 211t-181 76t-181 -76t-75 -211zM459 1128l186 308h311l-278 -308h-219z" />
<glyph unicode="&#xf4;" d="M70 504q0 234 150 384t378 150q229 0 377 -151q151 -150 151 -383t-151 -383q-147 -152 -377 -152t-377 152q-152 150 -151 383zM242 1130l225 302h270l226 -302h-220l-145 154l-143 -154h-213zM342 504q0 -135 75 -211t181 -76t181 76t75 211t-75 211t-181 76t-181 -76 t-75 -211z" />
<glyph unicode="&#xf5;" d="M70 504q0 234 150 384t378 150q229 0 377 -151q151 -150 151 -383t-151 -383q-147 -152 -377 -152t-377 152q-152 150 -151 383zM244 1139v43q0 121 63 182q59 66 146 66t162 -46t110 -47q68 0 68 88h163v-36q0 -119 -59 -189q-63 -63 -153 -63t-154 45q-65 45 -107 45 q-70 0 -71 -88h-168zM342 504q0 -135 75 -211t181 -76t181 76t75 211t-75 211t-181 76t-181 -76t-75 -211z" />
<glyph unicode="&#xf6;" d="M70 504q0 234 150 384t378 150q229 0 377 -151q151 -150 151 -383t-151 -383q-147 -152 -377 -152t-377 152q-152 150 -151 383zM238 1286q0 57 41 103q43 43 102 43t102 -43t43 -103t-43 -102q-45 -41 -102 -41t-102 41q-41 45 -41 102zM342 504q0 -135 75 -211t181 -76 t181 76t75 211t-75 211t-181 76t-181 -76t-75 -211zM668 1288q0 60 41 102t101 42t103 -43t43 -103t-43 -102q-45 -41 -104 -41t-100 43t-41 102z" />
<glyph unicode="&#xf7;" horiz-adv-x="1202" d="M100 489v228h1002v-228h-1002zM436 230q0 67 47 110q45 47 113 47t113 -47q47 -43 47 -110q0 -68 -47 -114t-113 -46t-113 46t-47 114zM436 980q0 67 47 110q45 47 113 47t113 -47q47 -43 47 -110t-47 -114t-113 -47t-113 47t-47 114z" />
<glyph unicode="&#xf8;" d="M70 514q0 224 150 374t378 150q152 0 270 -69l109 133l131 -111l-107 -133q125 -145 125 -366t-151 -371q-147 -152 -377 -152q-141 0 -262 64l-103 -127l-135 110l103 125q-131 150 -131 373zM342 504q0 -86 31 -148l334 412q-57 23 -109 23q-106 0 -181 -76t-75 -211z M500 236q45 -19 98 -19q106 0 181 76t75 211q0 78 -27 139z" />
<glyph unicode="&#xf9;" horiz-adv-x="1200" d="M135 371v637h273v-582q0 -88 46 -145t136 -57t141 55q51 51 51 143v586h273v-826q0 -86 10 -182h-260q-8 35 -8 109q-43 -72 -117 -101q-70 -35 -162 -35q-178 0 -280 113q-102 119 -103 285zM250 1436h315l185 -308h-222z" />
<glyph unicode="&#xfa;" horiz-adv-x="1200" d="M135 371v637h273v-582q0 -88 46 -145t136 -57t141 55q51 51 51 143v586h273v-826q0 -86 10 -182h-260q-8 35 -8 109q-43 -72 -117 -101q-70 -35 -162 -35q-178 0 -280 113q-102 119 -103 285zM424 1128l186 308h312l-279 -308h-219z" />
<glyph unicode="&#xfb;" horiz-adv-x="1200" d="M135 371v637h273v-582q0 -88 46 -145t136 -57t141 55q51 51 51 143v586h273v-826q0 -86 10 -182h-260q-8 35 -8 109q-43 -72 -117 -101q-70 -35 -162 -35q-178 0 -280 113q-102 119 -103 285zM238 1130l225 302h270l225 -302h-219l-145 154l-143 -154h-213z" />
<glyph unicode="&#xfc;" horiz-adv-x="1200" d="M135 371v637h273v-582q0 -88 46 -145t136 -57t141 55q51 51 51 143v586h273v-826q0 -86 10 -182h-260q-8 35 -8 109q-43 -72 -117 -101q-70 -35 -162 -35q-178 0 -280 113q-102 119 -103 285zM242 1286q0 57 41 103q43 43 102 43t102 -43t43 -103t-43 -102 q-45 -41 -102 -41t-102 41q-41 45 -41 102zM672 1288q0 60 41 102t101 42t104 -43t43 -103q0 -60 -43 -102q-44 -41 -104 -41t-101 43t-41 102z" />
<glyph unicode="&#xfd;" horiz-adv-x="1146" d="M14 1008h305l269 -590l248 590h290l-632 -1405h-289l237 524zM422 1128l186 308h312l-279 -308h-219z" />
<glyph unicode="&#xfe;" horiz-adv-x="1253" d="M145 -389v1872h273v-586q39 57 118 95t183 38q213 0 339 -145t126 -375t-131 -385q-135 -150 -340 -150t-295 123v-487h-273zM414 504q0 -129 72 -207t180 -78q109 0 179 77t70 209t-71 206q-68 75 -178 75t-182 -76q-70 -76 -70 -206z" />
<glyph unicode="&#xff;" horiz-adv-x="1146" d="M14 1008h305l269 -590l248 590h290l-632 -1405h-289l237 524zM219 1286q0 58 41 102t101 44q59 0 103 -43t44 -103t-43 -102q-45 -41 -103 -41t-101 42q-42 42 -42 101zM649 1288q0 60 40 102q39 42 101 42t105 -43t43 -103t-43 -102q-45 -41 -104 -41t-101 41 q-41 45 -41 104z" />
<glyph unicode="&#x2000;" horiz-adv-x="916" />
<glyph unicode="&#x2001;" horiz-adv-x="1833" />
<glyph unicode="&#x2002;" horiz-adv-x="916" />
<glyph unicode="&#x2003;" horiz-adv-x="1833" />
<glyph unicode="&#x2004;" horiz-adv-x="611" />
<glyph unicode="&#x2005;" horiz-adv-x="458" />
<glyph unicode="&#x2006;" horiz-adv-x="305" />
<glyph unicode="&#x2007;" horiz-adv-x="305" />
<glyph unicode="&#x2008;" horiz-adv-x="229" />
<glyph unicode="&#x2009;" horiz-adv-x="366" />
<glyph unicode="&#x200a;" horiz-adv-x="101" />
<glyph unicode="&#x2010;" horiz-adv-x="778" d="M92 487v242h594v-242h-594z" />
<glyph unicode="&#x2011;" horiz-adv-x="778" d="M92 487v242h594v-242h-594z" />
<glyph unicode="&#x2012;" horiz-adv-x="778" d="M92 487v242h594v-242h-594z" />
<glyph unicode="&#x2013;" horiz-adv-x="1208" d="M92 487v242h1024v-242h-1024z" />
<glyph unicode="&#x2014;" horiz-adv-x="2232" d="M92 487v242h2048v-242h-2048z" />
<glyph unicode="&#x202f;" horiz-adv-x="366" />
<glyph unicode="&#x205f;" horiz-adv-x="458" />
<glyph unicode="&#x25fc;" horiz-adv-x="1010" d="M0 0v1010h1010v-1010h-1010z" />
</font>
</defs>
</svg>
